<?xml version="1.0" encoding="UTF-8"?>
<svg width="1144px" height="465px" viewBox="0 0 1144 465" version="1.1" xmlns="http://www.w3.org/2000/svg" xmlns:xlink="http://www.w3.org/1999/xlink">
    <!-- Generator: Sketch 52.6 (67491) - http://www.bohemiancoding.com/sketch -->
    <title>pattern hero copy 4</title>
    <desc>Created with Sketch.</desc>
    <g id="RVI" stroke="none" stroke-width="1" fill="none" fill-rule="evenodd">
        <g id="Artboard" transform="translate(-268.000000, -61.000000)" fill="#8262BF" fill-rule="nonzero">
            <g id="pattern-hero-copy-4" transform="translate(266.000000, 59.000000)">
                <path d="M954.329902,205.160887 L933.800149,205.160887 C933.284105,205.160887 932.866978,205.577729 932.866978,206.09342 L932.866978,226.609143 C932.866978,227.124834 933.284105,227.541676 933.800149,227.541676 L954.329902,227.541676 C954.845946,227.541676 955.263073,227.124834 955.263073,226.609143 L955.263073,206.09342 C955.263073,205.577729 954.845946,205.160887 954.329902,205.160887 Z M948.730879,207.025953 L948.730879,208.891019 L946.864537,208.891019 L946.864537,207.025953 L948.730879,207.025953 Z M944.998196,207.025953 L944.998196,208.891019 L943.131855,208.891019 L943.131855,207.025953 L944.998196,207.025953 Z M941.265514,207.025953 L941.265514,208.891019 L939.399172,208.891019 L939.399172,207.025953 L941.265514,207.025953 Z M939.399172,225.676611 L939.399172,223.811545 L941.265514,223.811545 L941.265514,225.676611 L939.399172,225.676611 Z M943.131855,225.676611 L943.131855,223.811545 L944.998196,223.811545 L944.998196,225.676611 L943.131855,225.676611 Z M946.864537,225.676611 L946.864537,223.811545 L948.730879,223.811545 L948.730879,225.676611 L946.864537,225.676611 Z M953.396732,225.676611 L950.59722,225.676611 L950.59722,223.811545 L952.463561,223.811545 L952.463561,221.946479 L935.66649,221.946479 L935.66649,223.811545 L937.532831,223.811545 L937.532831,225.676611 L934.733319,225.676611 L934.733319,207.025953 L937.532831,207.025953 L937.532831,208.891019 L935.66649,208.891019 L935.66649,210.756085 L952.463561,210.756085 L952.463561,208.891019 L950.59722,208.891019 L950.59722,207.025953 L953.396732,207.025953 L953.396732,225.676611 Z" id="Shape" transform="translate(944.065026, 216.351282) rotate(-53.000000) translate(-944.065026, -216.351282) "></path>
                <polygon id="Shape" transform="translate(944.344598, 215.978749) rotate(-53.000000) translate(-944.344598, -215.978749) " points="941.079311 212.24699 941.081763 219.710507 947.609884 215.980894"></polygon>
                <path d="M851.880398,385.153963 L837.949493,385.153963 C837.599321,385.153963 837.316271,385.43682 837.316271,385.786753 L837.316271,399.708137 C837.316271,400.05807 837.599321,400.340927 837.949493,400.340927 L851.880398,400.340927 C852.23057,400.340927 852.513621,400.05807 852.513621,399.708137 L852.513621,385.786753 C852.513621,385.43682 852.23057,385.153963 851.880398,385.153963 Z M848.08106,386.419544 L848.08106,387.685124 L846.814614,387.685124 L846.814614,386.419544 L848.08106,386.419544 Z M845.548168,386.419544 L845.548168,387.685124 L844.281723,387.685124 L844.281723,386.419544 L845.548168,386.419544 Z M843.015277,386.419544 L843.015277,387.685124 L841.748831,387.685124 L841.748831,386.419544 L843.015277,386.419544 Z M841.748831,399.075347 L841.748831,397.809767 L843.015277,397.809767 L843.015277,399.075347 L841.748831,399.075347 Z M844.281723,399.075347 L844.281723,397.809767 L845.548168,397.809767 L845.548168,399.075347 L844.281723,399.075347 Z M846.814614,399.075347 L846.814614,397.809767 L848.08106,397.809767 L848.08106,399.075347 L846.814614,399.075347 Z M851.247175,399.075347 L849.347506,399.075347 L849.347506,397.809767 L850.613952,397.809767 L850.613952,396.544186 L839.215939,396.544186 L839.215939,397.809767 L840.482385,397.809767 L840.482385,399.075347 L838.582716,399.075347 L838.582716,386.419544 L840.482385,386.419544 L840.482385,387.685124 L839.215939,387.685124 L839.215939,388.950704 L850.613952,388.950704 L850.613952,387.685124 L849.347506,387.685124 L849.347506,386.419544 L851.247175,386.419544 L851.247175,399.075347 Z" id="Shape" transform="translate(844.914946, 392.747445) rotate(-356.000000) translate(-844.914946, -392.747445) "></path>
                <polygon id="Shape" transform="translate(845.230718, 392.769617) rotate(-356.000000) translate(-845.230718, -392.769617) " points="843.014626 390.238448 843.014385 395.300786 847.447051 392.769406"></polygon>
                <path d="M790.715943,165.286388 L776.051833,165.286388 C775.683231,165.286388 775.385283,165.584133 775.385283,165.952483 L775.385283,180.606571 C775.385283,180.974922 775.683231,181.272666 776.051833,181.272666 L790.715943,181.272666 C791.084546,181.272666 791.382494,180.974922 791.382494,180.606571 L791.382494,165.952483 C791.382494,165.584133 791.084546,165.286388 790.715943,165.286388 Z M786.716641,166.618578 L786.716641,167.950768 L785.38354,167.950768 L785.38354,166.618578 L786.716641,166.618578 Z M784.050439,166.618578 L784.050439,167.950768 L782.717338,167.950768 L782.717338,166.618578 L784.050439,166.618578 Z M781.384237,166.618578 L781.384237,167.950768 L780.051136,167.950768 L780.051136,166.618578 L781.384237,166.618578 Z M780.051136,179.940476 L780.051136,178.608287 L781.384237,178.608287 L781.384237,179.940476 L780.051136,179.940476 Z M782.717338,179.940476 L782.717338,178.608287 L784.050439,178.608287 L784.050439,179.940476 L782.717338,179.940476 Z M785.38354,179.940476 L785.38354,178.608287 L786.716641,178.608287 L786.716641,179.940476 L785.38354,179.940476 Z M790.049393,179.940476 L788.049741,179.940476 L788.049741,178.608287 L789.382842,178.608287 L789.382842,177.276097 L777.384934,177.276097 L777.384934,178.608287 L778.718035,178.608287 L778.718035,179.940476 L776.718384,179.940476 L776.718384,166.618578 L778.718035,166.618578 L778.718035,167.950768 L777.384934,167.950768 L777.384934,169.282958 L789.382842,169.282958 L789.382842,167.950768 L788.049741,167.950768 L788.049741,166.618578 L790.049393,166.618578 L790.049393,179.940476 Z" id="Shape" transform="translate(783.383888, 173.279527) rotate(-355.000000) translate(-783.383888, -173.279527) "></path>
                <polygon id="Shape" transform="translate(783.715804, 173.308685) rotate(-355.000000) translate(-783.715804, -173.308685) " points="781.383127 170.644292 781.382811 175.973079 786.048798 173.308408"></polygon>
                <path d="M574.589763,390.62218 L555.52642,390.62218 C555.047237,390.62218 554.659904,391.009247 554.659904,391.488103 L554.659904,410.538418 C554.659904,411.017273 555.047237,411.404341 555.52642,411.404341 L574.589763,411.404341 C575.068946,411.404341 575.456278,411.017273 575.456278,410.538418 L575.456278,391.488103 C575.456278,391.009247 575.068946,390.62218 574.589763,390.62218 Z M569.390669,392.354026 L569.390669,394.085873 L567.657638,394.085873 L567.657638,392.354026 L569.390669,392.354026 Z M565.924607,392.354026 L565.924607,394.085873 L564.191576,394.085873 L564.191576,392.354026 L565.924607,392.354026 Z M562.458545,392.354026 L562.458545,394.085873 L560.725513,394.085873 L560.725513,392.354026 L562.458545,392.354026 Z M560.725513,409.672494 L560.725513,407.940647 L562.458545,407.940647 L562.458545,409.672494 L560.725513,409.672494 Z M564.191576,409.672494 L564.191576,407.940647 L565.924607,407.940647 L565.924607,409.672494 L564.191576,409.672494 Z M567.657638,409.672494 L567.657638,407.940647 L569.390669,407.940647 L569.390669,409.672494 L567.657638,409.672494 Z M573.723247,409.672494 L571.1237,409.672494 L571.1237,407.940647 L572.856732,407.940647 L572.856732,406.208801 L557.259451,406.208801 L557.259451,407.940647 L558.992482,407.940647 L558.992482,409.672494 L556.392936,409.672494 L556.392936,392.354026 L558.992482,392.354026 L558.992482,394.085873 L557.259451,394.085873 L557.259451,395.81772 L572.856732,395.81772 L572.856732,394.085873 L571.1237,394.085873 L571.1237,392.354026 L573.723247,392.354026 L573.723247,409.672494 Z" id="Shape" transform="translate(565.058091, 401.013260) rotate(-92.000000) translate(-565.058091, -401.013260) "></path>
                <polygon id="Shape" transform="translate(565.043045, 400.580601) rotate(-92.000000) translate(-565.043045, -400.580601) " points="562.012434 397.114542 562.012269 404.046661 568.07382 400.580457"></polygon>
                <path d="M272.42417,337.228489 L252.627622,337.228489 C252.130009,337.228489 251.727779,337.630444 251.727779,338.127717 L251.727779,357.910736 C251.727779,358.408009 252.130009,358.809964 252.627622,358.809964 L272.42417,358.809964 C272.921783,358.809964 273.324013,358.408009 273.324013,357.910736 L273.324013,338.127717 C273.324013,337.630444 272.921783,337.228489 272.42417,337.228489 Z M267.025112,339.026946 L267.025112,340.825402 L265.225425,340.825402 L265.225425,339.026946 L267.025112,339.026946 Z M263.425739,339.026946 L263.425739,340.825402 L261.626053,340.825402 L261.626053,339.026946 L263.425739,339.026946 Z M259.826367,339.026946 L259.826367,340.825402 L258.026681,340.825402 L258.026681,339.026946 L259.826367,339.026946 Z M258.026681,357.011508 L258.026681,355.213052 L259.826367,355.213052 L259.826367,357.011508 L258.026681,357.011508 Z M261.626053,357.011508 L261.626053,355.213052 L263.425739,355.213052 L263.425739,357.011508 L261.626053,357.011508 Z M265.225425,357.011508 L265.225425,355.213052 L267.025112,355.213052 L267.025112,357.011508 L265.225425,357.011508 Z M271.524327,357.011508 L268.824798,357.011508 L268.824798,355.213052 L270.624484,355.213052 L270.624484,353.414596 L254.427308,353.414596 L254.427308,355.213052 L256.226994,355.213052 L256.226994,357.011508 L253.527465,357.011508 L253.527465,339.026946 L256.226994,339.026946 L256.226994,340.825402 L254.427308,340.825402 L254.427308,342.623858 L270.624484,342.623858 L270.624484,340.825402 L268.824798,340.825402 L268.824798,339.026946 L271.524327,339.026946 L271.524327,357.011508 Z" id="Shape" transform="translate(262.525896, 348.019227) rotate(-23.000000) translate(-262.525896, -348.019227) "></path>
                <polygon id="Shape" transform="translate(262.939341, 347.843009) rotate(-23.000000) translate(-262.939341, -347.843009) " points="259.789777 344.245721 259.791546 351.440297 266.088906 347.844557"></polygon>
                <path d="M490.499937,82.8152366 L470.703389,82.8152366 C470.205775,82.8152366 469.803546,83.2171916 469.803546,83.7144647 L469.803546,103.497484 C469.803546,103.994757 470.205775,104.396712 470.703389,104.396712 L490.499937,104.396712 C490.99755,104.396712 491.39978,103.994757 491.39978,103.497484 L491.39978,83.7144647 C491.39978,83.2171916 490.99755,82.8152366 490.499937,82.8152366 Z M485.100878,84.6136929 L485.100878,86.4121491 L483.301192,86.4121491 L483.301192,84.6136929 L485.100878,84.6136929 Z M481.501506,84.6136929 L481.501506,86.4121491 L479.70182,86.4121491 L479.70182,84.6136929 L481.501506,84.6136929 Z M477.902133,84.6136929 L477.902133,86.4121491 L476.102447,86.4121491 L476.102447,84.6136929 L477.902133,84.6136929 Z M476.102447,102.598255 L476.102447,100.799799 L477.902133,100.799799 L477.902133,102.598255 L476.102447,102.598255 Z M479.70182,102.598255 L479.70182,100.799799 L481.501506,100.799799 L481.501506,102.598255 L479.70182,102.598255 Z M483.301192,102.598255 L483.301192,100.799799 L485.100878,100.799799 L485.100878,102.598255 L483.301192,102.598255 Z M489.600094,102.598255 L486.900564,102.598255 L486.900564,100.799799 L488.700251,100.799799 L488.700251,99.0013429 L472.503075,99.0013429 L472.503075,100.799799 L474.302761,100.799799 L474.302761,102.598255 L471.603232,102.598255 L471.603232,84.6136929 L474.302761,84.6136929 L474.302761,86.4121491 L472.503075,86.4121491 L472.503075,88.2106054 L488.700251,88.2106054 L488.700251,86.4121491 L486.900564,86.4121491 L486.900564,84.6136929 L489.600094,84.6136929 L489.600094,102.598255 Z" id="Shape" transform="translate(480.601663, 93.605974) rotate(-324.000000) translate(-480.601663, -93.605974) "></path>
                <polygon id="Shape" transform="translate(480.964582, 93.870735) rotate(-324.000000) translate(-480.964582, -93.870735) " points="477.81763 90.2729726 477.81529 97.4684973 484.113874 93.8686879"></polygon>
                <path d="M176.557625,311.162088 L161.16031,311.162088 C160.773277,311.162088 160.460432,311.47472 160.460432,311.861488 L160.460432,327.24828 C160.460432,327.635048 160.773277,327.94768 161.16031,327.94768 L176.557625,327.94768 C176.944657,327.94768 177.257503,327.635048 177.257503,327.24828 L177.257503,311.861488 C177.257503,311.47472 176.944657,311.162088 176.557625,311.162088 Z M172.358357,312.560888 L172.358357,313.959687 L170.958601,313.959687 L170.958601,312.560888 L172.358357,312.560888 Z M169.558845,312.560888 L169.558845,313.959687 L168.159089,313.959687 L168.159089,312.560888 L169.558845,312.560888 Z M166.759333,312.560888 L166.759333,313.959687 L165.359577,313.959687 L165.359577,312.560888 L166.759333,312.560888 Z M165.359577,326.548881 L165.359577,325.150081 L166.759333,325.150081 L166.759333,326.548881 L165.359577,326.548881 Z M168.159089,326.548881 L168.159089,325.150081 L169.558845,325.150081 L169.558845,326.548881 L168.159089,326.548881 Z M170.958601,326.548881 L170.958601,325.150081 L172.358357,325.150081 L172.358357,326.548881 L170.958601,326.548881 Z M175.857747,326.548881 L173.758113,326.548881 L173.758113,325.150081 L175.157869,325.150081 L175.157869,323.751282 L162.560066,323.751282 L162.560066,325.150081 L163.959822,325.150081 L163.959822,326.548881 L161.860188,326.548881 L161.860188,312.560888 L163.959822,312.560888 L163.959822,313.959687 L162.560066,313.959687 L162.560066,315.358486 L175.157869,315.358486 L175.157869,313.959687 L173.758113,313.959687 L173.758113,312.560888 L175.857747,312.560888 L175.857747,326.548881 Z" id="Shape" transform="translate(168.858967, 319.554884) rotate(-107.000000) translate(-168.858967, -319.554884) "></path>
                <polygon id="Shape" transform="translate(168.757181, 319.220584) rotate(-107.000000) translate(-168.757181, -319.220584) " points="166.309941 316.421235 166.308871 322.019932 171.20549 319.219647"></polygon>
                <path d="M166.163115,49.3392503 L147.099772,49.3392503 C146.620589,49.3392503 146.233257,49.726318 146.233257,50.2051736 L146.233257,69.2554881 C146.233257,69.7343437 146.620589,70.1214115 147.099772,70.1214115 L166.163115,70.1214115 C166.642298,70.1214115 167.02963,69.7343437 167.02963,69.2554881 L167.02963,50.2051736 C167.02963,49.726318 166.642298,49.3392503 166.163115,49.3392503 Z M160.964021,51.071097 L160.964021,52.8029438 L159.23099,52.8029438 L159.23099,51.071097 L160.964021,51.071097 Z M157.497959,51.071097 L157.497959,52.8029438 L155.764928,52.8029438 L155.764928,51.071097 L157.497959,51.071097 Z M154.031897,51.071097 L154.031897,52.8029438 L152.298866,52.8029438 L152.298866,51.071097 L154.031897,51.071097 Z M152.298866,68.3895647 L152.298866,66.657718 L154.031897,66.657718 L154.031897,68.3895647 L152.298866,68.3895647 Z M155.764928,68.3895647 L155.764928,66.657718 L157.497959,66.657718 L157.497959,68.3895647 L155.764928,68.3895647 Z M159.23099,68.3895647 L159.23099,66.657718 L160.964021,66.657718 L160.964021,68.3895647 L159.23099,68.3895647 Z M165.296599,68.3895647 L162.697053,68.3895647 L162.697053,66.657718 L164.430084,66.657718 L164.430084,64.9258712 L148.832803,64.9258712 L148.832803,66.657718 L150.565835,66.657718 L150.565835,68.3895647 L147.966288,68.3895647 L147.966288,51.071097 L150.565835,51.071097 L150.565835,52.8029438 L148.832803,52.8029438 L148.832803,54.5347906 L164.430084,54.5347906 L164.430084,52.8029438 L162.697053,52.8029438 L162.697053,51.071097 L165.296599,51.071097 L165.296599,68.3895647 Z" id="Shape" transform="translate(156.631444, 59.730331) rotate(-285.000000) translate(-156.631444, -59.730331) "></path>
                <polygon id="Shape" transform="translate(156.743002, 60.148388) rotate(-285.000000) translate(-156.743002, -60.148388) " points="153.713019 56.6824842 153.711835 63.6142915 159.774169 60.1473515"></polygon>
                <path d="M78.7477013,263.135032 L64.0835915,263.135032 C63.7149891,263.135032 63.4170411,263.432776 63.4170411,263.801127 L63.4170411,278.455215 C63.4170411,278.823566 63.7149891,279.12131 64.0835915,279.12131 L78.7477013,279.12131 C79.1163037,279.12131 79.4142517,278.823566 79.4142517,278.455215 L79.4142517,263.801127 C79.4142517,263.432776 79.1163037,263.135032 78.7477013,263.135032 Z M74.7483986,264.467222 L74.7483986,265.799412 L73.4152977,265.799412 L73.4152977,264.467222 L74.7483986,264.467222 Z M72.0821968,264.467222 L72.0821968,265.799412 L70.749096,265.799412 L70.749096,264.467222 L72.0821968,264.467222 Z M69.4159951,264.467222 L69.4159951,265.799412 L68.0828942,265.799412 L68.0828942,264.467222 L69.4159951,264.467222 Z M68.0828942,277.78912 L68.0828942,276.45693 L69.4159951,276.45693 L69.4159951,277.78912 L68.0828942,277.78912 Z M70.749096,277.78912 L70.749096,276.45693 L72.0821968,276.45693 L72.0821968,277.78912 L70.749096,277.78912 Z M73.4152977,277.78912 L73.4152977,276.45693 L74.7483986,276.45693 L74.7483986,277.78912 L73.4152977,277.78912 Z M78.0811508,277.78912 L76.0814995,277.78912 L76.0814995,276.45693 L77.4146004,276.45693 L77.4146004,275.12474 L65.4166924,275.12474 L65.4166924,276.45693 L66.7497933,276.45693 L66.7497933,277.78912 L64.750142,277.78912 L64.750142,264.467222 L66.7497933,264.467222 L66.7497933,265.799412 L65.4166924,265.799412 L65.4166924,267.131602 L77.4146004,267.131602 L77.4146004,265.799412 L76.0814995,265.799412 L76.0814995,264.467222 L78.0811508,264.467222 L78.0811508,277.78912 Z" id="Shape" transform="translate(71.415646, 271.128171) rotate(-181.000000) translate(-71.415646, -271.128171) "></path>
                <polygon id="Shape" transform="translate(71.082438, 271.134011) rotate(-181.000000) translate(-71.082438, -271.134011) " points="68.7494964 268.469631 68.74956 273.798391 73.4153803 271.134067"></polygon>
                <path d="M97.1964385,33.2579734 L81.7991233,33.2579734 C81.4120908,33.2579734 81.0992454,33.570605 81.0992454,33.957373 L81.0992454,49.3441655 C81.0992454,49.7309335 81.4120908,50.0435651 81.7991233,50.0435651 L97.1964385,50.0435651 C97.5834711,50.0435651 97.8963165,49.7309335 97.8963165,49.3441655 L97.8963165,33.957373 C97.8963165,33.570605 97.5834711,33.2579734 97.1964385,33.2579734 Z M92.9971708,34.6567727 L92.9971708,36.055572 L91.5974148,36.055572 L91.5974148,34.6567727 L92.9971708,34.6567727 Z M90.1976589,34.6567727 L90.1976589,36.055572 L88.797903,36.055572 L88.797903,34.6567727 L90.1976589,34.6567727 Z M87.398147,34.6567727 L87.398147,36.055572 L85.9983911,36.055572 L85.9983911,34.6567727 L87.398147,34.6567727 Z M85.9983911,48.6447658 L85.9983911,47.2459665 L87.398147,47.2459665 L87.398147,48.6447658 L85.9983911,48.6447658 Z M88.797903,48.6447658 L88.797903,47.2459665 L90.1976589,47.2459665 L90.1976589,48.6447658 L88.797903,48.6447658 Z M91.5974148,48.6447658 L91.5974148,47.2459665 L92.9971708,47.2459665 L92.9971708,48.6447658 L91.5974148,48.6447658 Z M96.4965606,48.6447658 L94.3969267,48.6447658 L94.3969267,47.2459665 L95.7966826,47.2459665 L95.7966826,45.8471672 L83.1988793,45.8471672 L83.1988793,47.2459665 L84.5986352,47.2459665 L84.5986352,48.6447658 L82.4990013,48.6447658 L82.4990013,34.6567727 L84.5986352,34.6567727 L84.5986352,36.055572 L83.1988793,36.055572 L83.1988793,37.4543713 L95.7966826,37.4543713 L95.7966826,36.055572 L94.3969267,36.055572 L94.3969267,34.6567727 L96.4965606,34.6567727 L96.4965606,48.6447658 Z" id="Shape"></path>
                <polygon id="Shape" points="87.398147 38.8531706 87.398147 44.4483679 92.2972928 41.6507692"></polygon>
                <ellipse id="Oval" transform="translate(1097.169334, 325.351660) rotate(-270.000000) translate(-1097.169334, -325.351660) " cx="1097.16933" cy="325.35166" rx="1.86506575" ry="1.89057943"></ellipse>
                <path d="M1103.65305,317.758178 L1083.1233,317.758178 C1082.60819,317.758178 1082.19013,318.180434 1082.19013,318.702822 L1082.19013,337.595696 C1082.19013,338.118084 1082.60819,338.54034 1083.1233,338.54034 L1103.65305,338.54034 C1104.16816,338.54034 1104.58622,338.118084 1104.58622,337.595696 L1104.58622,318.702822 C1104.58622,318.180434 1104.16816,317.758178 1103.65305,317.758178 Z M1102.71988,319.647466 L1102.71988,330.98319 L1098.05403,326.259972 L1092.455,332.872477 L1087.78915,329.093903 L1084.05647,332.872477 L1084.05647,319.647466 L1102.71988,319.647466 Z" id="Shape" transform="translate(1093.388175, 328.149259) rotate(-270.000000) translate(-1093.388175, -328.149259) "></path>
                <ellipse id="Oval" transform="translate(888.841676, 137.638372) rotate(-41.000000) translate(-888.841676, -137.638372) " cx="888.841676" cy="137.638372" rx="1.59925059" ry="1.59909844"></ellipse>
                <path d="M901.550152,129.685727 L883.95322,129.685727 C883.511697,129.685727 883.15336,130.043021 883.15336,130.485041 L883.15336,146.471319 C883.15336,146.91334 883.511697,147.270633 883.95322,147.270633 L901.550152,147.270633 C901.991675,147.270633 902.350013,146.91334 902.350013,146.471319 L902.350013,130.485041 C902.350013,130.043021 901.991675,129.685727 901.550152,129.685727 Z M900.750291,131.284355 L900.750291,140.876122 L896.750989,136.879552 L891.951826,142.47475 L887.952523,139.277494 L884.753081,142.47475 L884.753081,131.284355 L900.750291,131.284355 Z" id="Shape" transform="translate(892.751686, 138.478180) rotate(-41.000000) translate(-892.751686, -138.478180) "></path>
                <ellipse id="Oval" transform="translate(794.230857, 432.932038) rotate(-210.000000) translate(-794.230857, -432.932038) " cx="794.230857" cy="432.932038" rx="1.33287318" ry="1.30819187"></ellipse>
                <path d="M798.5223,424.471888 L783.85819,424.471888 C783.490254,424.471888 783.19164,424.764219 783.19164,425.125872 L783.19164,438.205554 C783.19164,438.567207 783.490254,438.859538 783.85819,438.859538 L798.5223,438.859538 C798.890236,438.859538 799.18885,438.567207 799.18885,438.205554 L799.18885,425.125872 C799.18885,424.764219 798.890236,424.471888 798.5223,424.471888 Z M797.855749,425.779856 L797.855749,433.627665 L794.522997,430.357745 L790.523695,434.935633 L787.190942,432.319697 L784.524741,434.935633 L784.524741,425.779856 L797.855749,425.779856 Z" id="Shape" transform="translate(791.190245, 431.665713) rotate(-210.000000) translate(-791.190245, -431.665713) "></path>
                <ellipse id="Oval" transform="translate(744.336525, 394.964038) rotate(-114.000000) translate(-744.336525, -394.964038) " cx="744.336525" cy="394.964038" rx="1.79865979" ry="1.81765937"></ellipse>
                <path d="M756.458206,381.030383 L736.661658,381.030383 C736.164944,381.030383 735.761815,381.436398 735.761815,381.938694 L735.761815,400.104919 C735.761815,400.607215 736.164944,401.01323 736.661658,401.01323 L756.458206,401.01323 C756.954919,401.01323 757.358049,400.607215 757.358049,400.104919 L757.358049,381.938694 C757.358049,381.436398 756.954919,381.030383 756.458206,381.030383 Z M755.558363,382.847005 L755.558363,393.74674 L751.059147,389.205184 L745.660089,395.563363 L741.160873,391.930118 L737.561501,395.563363 L737.561501,382.847005 L755.558363,382.847005 Z" id="Shape" transform="translate(746.559932, 391.021807) rotate(-114.000000) translate(-746.559932, -391.021807) "></path>
                <ellipse id="Oval" transform="translate(631.197907, 429.977745) rotate(-280.000000) translate(-631.197907, -429.977745) " cx="631.197907" cy="429.977745" rx="1.53204989" ry="1.526975"></ellipse>
                <path d="M637.021476,424.378026 L620.15775,424.378026 C619.734623,424.378026 619.391217,424.719078 619.391217,425.141007 L619.391217,440.400636 C619.391217,440.822565 619.734623,441.163618 620.15775,441.163618 L637.021476,441.163618 C637.444602,441.163618 637.788009,440.822565 637.788009,440.400636 L637.788009,425.141007 C637.788009,424.719078 637.444602,424.378026 637.021476,424.378026 Z M636.254943,425.903989 L636.254943,435.059766 L632.422278,431.244859 L627.82308,436.585729 L623.990415,433.533803 L620.924283,436.585729 L620.924283,425.903989 L636.254943,425.903989 Z" id="Shape" transform="translate(628.589613, 432.770822) rotate(-280.000000) translate(-628.589613, -432.770822) "></path>
                <ellipse id="Oval" transform="translate(533.303428, 329.808675) rotate(-209.000000) translate(-533.303428, -329.808675) " cx="533.303428" cy="329.808675" rx="1.19959812" ry="1.16282533"></ellipse>
                <path d="M537.200149,322.252339 L524.00245,322.252339 C523.671308,322.252339 523.402555,322.512189 523.402555,322.833659 L523.402555,334.460043 C523.402555,334.781512 523.671308,335.041362 524.00245,335.041362 L537.200149,335.041362 C537.531291,335.041362 537.800044,334.781512 537.800044,334.460043 L537.800044,322.833659 C537.800044,322.512189 537.531291,322.252339 537.200149,322.252339 Z M536.600253,323.414978 L536.600253,330.390808 L533.600776,327.484212 L530.001404,331.553447 L527.001927,329.22817 L524.602346,331.553447 L524.602346,323.414978 L536.600253,323.414978 Z" id="Shape" transform="translate(530.601300, 328.646851) rotate(-209.000000) translate(-530.601300, -328.646851) "></path>
                <ellipse id="Oval" transform="translate(491.589284, 240.718692) rotate(-56.000000) translate(-491.589284, -240.718692) " cx="491.589284" cy="240.718692" rx="1.79884095" ry="1.81747645"></ellipse>
                <path d="M506.011272,230.522472 L486.214724,230.522472 C485.718011,230.522472 485.314881,230.928487 485.314881,231.430783 L485.314881,249.597008 C485.314881,250.099304 485.718011,250.505319 486.214724,250.505319 L506.011272,250.505319 C506.507986,250.505319 506.911116,250.099304 506.911116,249.597008 L506.911116,231.430783 C506.911116,230.928487 506.507986,230.522472 506.011272,230.522472 Z M505.111429,232.339094 L505.111429,243.238829 L500.612214,238.697273 L495.213155,245.055452 L490.71394,241.422207 L487.114567,245.055452 L487.114567,232.339094 L505.111429,232.339094 Z" id="Shape" transform="translate(496.112998, 240.513896) rotate(-56.000000) translate(-496.112998, -240.513896) "></path>
                <ellipse id="Oval" transform="translate(500.403126, 159.965949) rotate(-119.000000) translate(-500.403126, -159.965949) " cx="500.403126" cy="159.965949" rx="1.46564442" ry="1.45405833"></ellipse>
                <path d="M509.945895,148.641151 L493.815375,148.641151 C493.410645,148.641151 493.082169,148.965963 493.082169,149.3678 L493.082169,163.90078 C493.082169,164.302617 493.410645,164.627429 493.815375,164.627429 L509.945895,164.627429 C510.350625,164.627429 510.679101,164.302617 510.679101,163.90078 L510.679101,149.3678 C510.679101,148.965963 510.350625,148.641151 509.945895,148.641151 Z M509.21269,150.094449 L509.21269,158.814237 L505.546663,155.180992 L501.14743,160.267535 L497.481402,157.360939 L494.54858,160.267535 L494.54858,150.094449 L509.21269,150.094449 Z" id="Shape" transform="translate(501.880635, 156.634290) rotate(-119.000000) translate(-501.880635, -156.634290) "></path>
                <ellipse id="Oval" transform="translate(360.431095, 418.913642) rotate(-274.000000) translate(-360.431095, -418.913642) " cx="360.431095" cy="418.913642" rx="1.66524282" ry="1.59971574"></ellipse>
                <path d="M366.578875,412.83599 L348.248738,412.83599 C347.788819,412.83599 347.41555,413.193283 347.41555,413.635304 L347.41555,429.621582 C347.41555,430.063603 347.788819,430.420896 348.248738,430.420896 L366.578875,430.420896 C367.038795,430.420896 367.412064,430.063603 367.412064,429.621582 L367.412064,413.635304 C367.412064,413.193283 367.038795,412.83599 366.578875,412.83599 Z M365.745687,414.434618 L365.745687,424.026385 L361.579747,420.029815 L356.580619,425.625012 L352.414679,422.427757 L349.081926,425.625012 L349.081926,414.434618 L365.745687,414.434618 Z" id="Shape" transform="translate(357.413807, 421.628443) rotate(-274.000000) translate(-357.413807, -421.628443) "></path>
                <ellipse id="Oval" transform="translate(391.775704, 58.353046) rotate(-256.000000) translate(-391.775704, -58.353046) " cx="391.775704" cy="58.3530461" rx="1.59869177" ry="1.59965707"></ellipse>
                <path d="M396.889254,51.1138197 L379.292322,51.1138197 C378.850799,51.1138197 378.492462,51.471113 378.492462,51.9131336 L378.492462,67.8994115 C378.492462,68.3414321 378.850799,68.6987254 379.292322,68.6987254 L396.889254,68.6987254 C397.330777,68.6987254 397.689114,68.3414321 397.689114,67.8994115 L397.689114,51.9131336 C397.689114,51.471113 397.330777,51.1138197 396.889254,51.1138197 Z M396.089393,52.7124475 L396.089393,62.3042142 L392.090091,58.3076447 L387.290928,63.902842 L383.291625,60.7055864 L380.092183,63.902842 L380.092183,52.7124475 L396.089393,52.7124475 Z" id="Shape" transform="translate(388.090788, 59.906273) rotate(-256.000000) translate(-388.090788, -59.906273) "></path>
                <ellipse id="Oval" transform="translate(129.949598, 383.236049) rotate(-345.000000) translate(-129.949598, -383.236049) " cx="129.949598" cy="383.236049" rx="1.53299585" ry="1.52603282"></ellipse>
                <path d="M139.812266,378.38596 L122.94854,378.38596 C122.525414,378.38596 122.182007,378.727013 122.182007,379.148941 L122.182007,394.40857 C122.182007,394.830499 122.525414,395.171552 122.94854,395.171552 L139.812266,395.171552 C140.235392,395.171552 140.578799,394.830499 140.578799,394.40857 L140.578799,379.148941 C140.578799,378.727013 140.235392,378.38596 139.812266,378.38596 Z M139.045733,379.911923 L139.045733,389.0677 L135.213068,385.252793 L130.61387,390.593663 L126.781205,387.541737 L123.715073,390.593663 L123.715073,379.911923 L139.045733,379.911923 Z" id="Shape" transform="translate(131.380403, 386.778756) rotate(-345.000000) translate(-131.380403, -386.778756) "></path>
                <path d="M1017.80586,356.220414 C1017.46749,355.882207 1017.07938,355.614432 1016.66016,355.413632 C1016.40108,355.673972 1016.25732,356.020582 1016.25723,356.387869 C1016.2572,356.534922 1016.28479,356.674373 1016.32758,356.807608 C1016.50645,356.918717 1016.67634,357.044325 1016.82895,357.196864 C1017.35031,357.718669 1017.63817,358.411749 1017.63799,359.149084 C1017.63781,359.886419 1017.3503,360.58033 1016.82868,361.102392 L1014.75602,363.173377 C1013.7114,364.217501 1011.89205,364.217949 1010.84863,363.174338 C1010.32658,362.652532 1010.03941,361.959453 1010.0396,361.222118 C1010.03978,360.484782 1010.32729,359.791562 1010.8489,359.2695 L1012.30253,357.816565 C1012.18039,357.356106 1012.11281,356.878373 1012.11293,356.388888 C1012.11296,356.277045 1012.12197,356.16589 1012.1289,356.055426 C1012.06741,356.109982 1012.00455,356.163157 1011.94513,356.221855 L1009.87247,358.29353 C1009.0897,359.075933 1008.65843,360.115764 1008.65816,361.222457 C1008.65789,362.32915 1009.08864,363.368769 1009.87103,364.150787 C1010.65411,364.933495 1011.69422,365.364042 1012.80144,365.36377 C1013.90866,365.363498 1014.94899,364.93244 1015.73245,364.149346 L1017.80511,362.078362 C1018.58719,361.295269 1019.01915,360.255437 1019.01942,359.148744 C1019.01969,358.042051 1018.58825,357.002432 1017.80586,356.220414 Z" id="Shape" transform="translate(1013.838791, 360.388701) rotate(-157.000000) translate(-1013.838791, -360.388701) "></path>
                <path d="M1011.30733,359.560505 C1010.52425,358.777797 1009.48413,358.34725 1008.37692,358.347522 C1007.2697,358.347794 1006.22937,358.778852 1005.44591,359.561946 L1003.37325,361.632931 C1002.59116,362.416023 1002.15921,363.455855 1002.15894,364.562548 C1002.15867,365.669241 1002.58942,366.70886 1003.37181,367.490878 C1003.71018,367.829085 1004.09829,368.096861 1004.51751,368.297661 C1004.77728,368.03732 1004.92104,367.69071 1004.92113,367.323423 C1004.92116,367.172918 1004.89288,367.030015 1004.84802,366.894019 C1004.66984,366.787053 1004.50064,366.664896 1004.3501,366.514428 C1003.82805,365.992623 1003.54019,365.299543 1003.54037,364.562208 C1003.54055,363.824873 1003.82806,363.130962 1004.34968,362.6089 L1006.42234,360.537915 C1006.94465,360.015853 1007.63889,359.728481 1008.37658,359.728299 C1009.11426,359.728118 1009.80836,360.015149 1010.33041,360.536954 C1010.85178,361.05876 1011.13894,361.75184 1011.13876,362.489175 C1011.13858,363.22651 1010.85107,363.91973 1010.32945,364.441792 L1008.87376,365.896799 C1008.99659,366.356568 1009.06555,366.833609 1009.06542,367.322404 C1009.0654,367.434247 1009.05708,367.544711 1009.05084,367.655175 C1009.11233,367.600619 1009.17519,367.548134 1009.23392,367.489437 L1011.30658,365.417762 C1012.08866,364.635359 1012.51992,363.595528 1012.5202,362.488835 C1012.52047,361.382142 1012.08972,360.342523 1011.30733,359.560505 Z" id="Shape" transform="translate(1007.339567, 363.322591) rotate(-157.000000) translate(-1007.339567, -363.322591) "></path>
                <path d="M914.180088,423.856646 C913.877468,423.553831 913.530369,423.314064 913.155467,423.134252 C912.923816,423.367288 912.795306,423.67757 912.795267,424.006379 C912.795252,424.138026 912.819944,424.262871 912.858225,424.382152 C913.018189,424.481642 913.170121,424.594111 913.306609,424.730687 C913.772891,425.197886 914.030384,425.81839 914.030307,426.478479 C914.03023,427.138569 913.773209,427.75975 913.306818,428.227059 L911.453608,430.080842 C910.51959,431.01546 908.892662,431.01565 907.959481,430.081251 C907.492581,429.614051 907.235705,428.993547 907.235782,428.333458 C907.235859,427.673368 907.49288,427.052805 907.959271,426.585496 L909.258989,425.284943 C909.149711,424.872709 909.08923,424.445017 909.089281,424.006812 C909.089293,423.906686 909.097334,423.807177 909.103522,423.708287 C909.048544,423.75712 908.992331,423.804717 908.939206,423.857259 L907.085996,425.711659 C906.386101,426.412005 906.000569,427.34285 906.000453,428.333602 C906.000338,429.324355 906.385651,430.25511 907.085383,430.955291 C907.785733,431.656091 908.71589,432.041652 909.706006,432.041537 C910.696122,432.041421 911.62637,431.655642 912.326883,430.954678 L914.180093,429.100896 C914.879371,428.399933 915.26552,427.469087 915.265636,426.478335 C915.265752,425.487583 914.87982,424.556827 914.180088,423.856646 Z" id="Shape" transform="translate(910.633045, 427.587894) rotate(-280.000000) translate(-910.633045, -427.587894) "></path>
                <path d="M919.551111,427.664413 C918.850761,426.963614 917.920604,426.578052 916.930488,426.578168 C915.940372,426.578284 915.010124,426.964063 914.309611,427.665026 L912.456401,429.518809 C911.757123,430.219772 911.370974,431.150618 911.370858,432.14137 C911.370742,433.132122 911.756056,434.062877 912.455788,434.763059 C912.758408,435.065874 913.105507,435.305641 913.480409,435.485453 C913.712678,435.252417 913.841188,434.942135 913.841227,434.613326 C913.841242,434.478589 913.815933,434.350653 913.775799,434.2289 C913.616453,434.133119 913.465138,434.02374 913.330503,433.889018 C912.863603,433.421818 912.60611,432.801315 912.606187,432.141225 C912.606264,431.481136 912.863285,430.859954 913.329676,430.392645 L915.182886,428.538863 C915.649895,428.071554 916.270678,427.814368 916.930343,427.814291 C917.590009,427.814214 918.210731,428.071254 918.677631,428.538454 C919.143913,429.005654 919.400789,429.626157 919.400712,430.286247 C919.400635,430.946336 919.143614,431.5669 918.677222,432.034209 L917.375651,433.336616 C917.485547,433.748232 917.547264,434.175305 917.547213,434.612893 C917.547201,434.713019 917.539778,434.811909 917.534207,434.9108 C917.589185,434.861967 917.645398,434.814987 917.697906,434.762446 L919.551115,432.908045 C920.250393,432.2077 920.635925,431.276855 920.63604,430.286102 C920.636156,429.29535 920.250842,428.364595 919.551111,427.664413 Z" id="Shape" transform="translate(916.003449, 431.031810) rotate(-280.000000) translate(-916.003449, -431.031810) "></path>
                <path d="M647.475128,330.256061 C647.136699,329.917843 646.748524,329.650046 646.329256,329.449216 C646.070182,329.709509 645.926454,330.056078 645.926403,330.423337 C645.926382,330.570379 645.953993,330.709823 645.996802,330.843052 C646.175696,330.954172 646.345608,331.07979 646.498246,331.232333 C647.019704,331.754155 647.307657,332.447213 647.307555,333.184493 C647.307452,333.921773 647.019996,334.615602 646.498394,335.137569 L644.425801,337.208177 C643.381214,338.252112 641.561731,338.252365 640.518125,337.208721 C639.995977,336.686898 639.708714,335.99384 639.708816,335.25656 C639.708919,334.51928 639.996375,333.826142 640.517977,333.304175 L641.971556,331.851504 C641.849354,331.391066 641.781725,330.913362 641.781793,330.423913 C641.781809,330.312079 641.790804,330.200933 641.797727,330.090479 C641.736241,330.145024 641.673374,330.198188 641.61396,330.256875 L639.541367,332.328174 C638.758618,333.110435 638.327434,334.150142 638.32728,335.256752 C638.327126,336.363362 638.758021,337.40295 639.540552,338.184993 C640.323775,338.967726 641.364012,339.398352 642.471313,339.398198 C643.578615,339.398044 644.618972,338.967129 645.402412,338.184178 L647.475004,336.11357 C648.257063,335.330619 648.688937,334.290911 648.689091,333.184301 C648.689245,332.077691 648.25766,331.038104 647.475128,330.256061 Z" id="Shape" transform="translate(643.508186, 334.423707) rotate(-348.000000) translate(-643.508186, -334.423707) "></path>
                <path d="M653.29552,326.542994 C652.512298,325.760261 651.472061,325.329635 650.364759,325.329789 C649.257458,325.329943 648.217101,325.760858 647.433661,326.543809 L645.361068,328.614418 C644.57901,329.397368 644.147135,330.437076 644.146981,331.543686 C644.146827,332.650296 644.577722,333.689884 645.360253,334.471927 C645.698683,334.810145 646.086857,335.077941 646.506126,335.278771 C646.765891,335.018478 646.909619,334.671909 646.90967,334.30465 C646.909691,334.154156 646.881389,334.01126 646.836508,333.87527 C646.658305,333.768293 646.489084,333.646127 646.338517,333.495654 C645.816369,332.973832 645.528415,332.280774 645.528517,331.543494 C645.52862,330.806214 645.816076,330.112386 646.337679,329.590418 L648.410271,327.51981 C648.932565,326.997842 649.626827,326.710566 650.364567,326.710463 C651.102308,326.710361 651.79649,326.997444 652.318638,327.519267 C652.840095,328.041089 653.127359,328.734147 653.127256,329.471427 C653.127153,330.208707 652.839697,330.901845 652.318095,331.423812 L650.862444,332.878555 C650.985337,333.338302 651.054347,333.815315 651.054279,334.304074 C651.054264,334.415908 651.045959,334.526363 651.039727,334.636818 C651.101213,334.582273 651.16408,334.529799 651.222803,334.471112 L653.295396,332.399813 C654.077455,331.617552 654.508639,330.577845 654.508792,329.471235 C654.508946,328.364625 654.078052,327.325037 653.29552,326.542994 Z" id="Shape" transform="translate(649.327887, 330.304280) rotate(-348.000000) translate(-649.327887, -330.304280) "></path>
                <path d="M613.968275,136.010323 C613.594327,135.636511 613.165393,135.340551 612.702085,135.118622 C612.415734,135.406395 612.25684,135.789519 612.256722,136.195491 C612.256675,136.358032 612.287165,136.51217 612.334452,136.659435 C612.532132,136.782238 612.719883,136.921068 612.888542,137.089665 C613.464727,137.666405 613.782834,138.432469 613.782598,139.247464 C613.782362,140.06246 613.464573,140.829471 612.888053,141.406545 L610.597248,143.695758 C609.442682,144.849906 607.431938,144.850488 606.278804,143.697009 C605.701856,143.12027 605.384511,142.354206 605.384748,141.53921 C605.384984,140.724215 605.702772,139.957967 606.279292,139.380893 L607.88591,137.774856 C607.75094,137.265905 607.676281,136.737859 607.676438,136.196818 C607.676474,136.073195 607.686434,135.950333 607.694103,135.828234 C607.626145,135.888539 607.55666,135.947318 607.49099,136.012201 L605.200185,138.302177 C604.335024,139.167024 603.858341,140.316397 603.857987,141.539653 C603.857632,142.762909 604.333648,143.912005 605.198308,144.776352 C606.06373,145.641461 607.213244,146.117305 608.436943,146.11695 C609.660642,146.116595 610.810431,145.640085 611.676355,144.774474 L613.967161,142.485261 C614.831558,141.619651 615.309005,140.470278 615.309359,139.247022 C615.309714,138.023766 614.832934,136.87467 613.968275,136.010323 Z" id="Shape" transform="translate(609.583673, 140.617786) rotate(-331.000000) translate(-609.583673, -140.617786) "></path>
                <path d="M621.452168,133.984681 C620.586746,133.119572 619.437233,132.643728 618.213533,132.644083 C616.989834,132.644437 615.840045,133.120947 614.974121,133.986558 L612.683315,136.275771 C611.818918,137.141382 611.341472,138.290755 611.341117,139.514011 C611.340762,140.737267 611.816779,141.886363 612.681438,142.750709 C613.055386,143.124522 613.48432,143.420482 613.947628,143.642411 C614.234742,143.354638 614.393637,142.971513 614.393754,142.565542 C614.393802,142.399185 614.36255,142.241232 614.312974,142.090915 C614.116056,141.972691 613.929067,141.837675 613.762698,141.671367 C613.185749,141.094628 612.867642,140.328563 612.867878,139.513568 C612.868114,138.698573 613.185903,137.931561 613.762423,137.354488 L616.053228,135.065275 C616.630511,134.488201 617.397801,134.170527 618.213091,134.170291 C619.028381,134.170055 619.795487,134.487283 620.372435,135.064023 C620.94862,135.640763 621.265965,136.406827 621.265728,137.221822 C621.265492,138.036817 620.947704,138.803066 620.371184,139.38014 L618.762275,140.988466 C618.898009,141.496654 618.974194,142.023937 618.974038,142.564214 C618.974002,142.687837 618.964806,142.809937 618.9579,142.932035 C619.025859,142.87173 619.095343,142.813714 619.160249,142.748832 L621.451055,140.458856 C622.315452,139.594008 622.792135,138.444635 622.79249,137.22138 C622.792844,135.998124 622.316828,134.849027 621.452168,133.984681 Z" id="Shape" transform="translate(617.066803, 138.143247) rotate(-331.000000) translate(-617.066803, -138.143247) "></path>
                <path d="M643.030013,4.11495715 C642.62021,3.7053263 642.150229,3.38092636 641.642646,3.13758464 C641.329191,3.45258028 641.155393,3.87208304 641.155513,4.31670531 C641.155561,4.49472138 641.189051,4.66355313 641.240933,4.82486803 C641.457521,4.95948309 641.663245,5.1116461 641.848074,5.29639798 C642.479506,5.92839964 642.828389,6.76759273 642.82863,7.66018031 C642.82887,8.55276789 642.481276,9.39260917 641.850184,10.0242708 L639.342536,12.5300281 C638.078681,13.7933509 635.876372,13.7927578 634.612673,12.5287543 C633.980405,11.8967524 633.632358,11.0575595 633.632117,10.164972 C633.631877,9.27238438 633.979472,8.43337886 634.610563,7.8017172 L636.36926,6.04375998 C636.221119,5.48627076 636.139025,4.90790543 636.138865,4.31535431 C636.138829,4.17996181 636.149662,4.045408 636.157987,3.91168926 C636.083591,3.97769396 636.007523,4.04202669 635.935636,4.1130466 L633.427988,6.61963959 C632.480933,7.56629621 631.95954,8.82480449 631.959901,10.1645216 C631.960262,11.5042388 632.482333,12.763028 633.429898,13.7101949 C634.3783,14.6581977 635.637619,15.1800487 636.9779,15.1804096 C638.318181,15.1807706 639.57722,14.6595978 640.525111,13.7121057 L643.032759,11.2063484 C643.978978,10.2588558 644.501207,9.00034778 644.500846,7.66063064 C644.500485,6.32091351 643.977578,5.062124 643.030013,4.11495715 Z" id="Shape" transform="translate(638.230374, 9.158997) rotate(-206.000000) translate(-638.230374, -9.158997) "></path>
                <path d="M640.5518,12.8725438 C639.603398,11.924541 638.344079,11.40269 637.003798,11.4023291 C635.663517,11.4019681 634.404478,11.9231409 633.456587,12.870633 L630.948939,15.3763903 C630.00272,16.3238829 629.480491,17.5823909 629.480852,18.9221081 C629.481213,20.2618252 630.003284,21.5206145 630.950849,22.4677813 C631.360652,22.8774122 631.830632,23.2018121 632.338216,23.4451538 C632.652507,23.1301584 632.826305,22.7106557 632.826185,22.2660334 C632.826136,22.0838385 632.791809,21.9108278 632.737417,21.7461692 C632.521667,21.6165689 632.31678,21.4685849 632.13446,21.2863409 C631.502192,20.6543391 631.153309,19.815146 631.153068,18.9225584 C631.152828,18.0299708 631.500422,17.1901295 632.131514,16.5584679 L634.639162,14.0527106 C635.27109,13.4210492 636.111285,13.0736009 637.004248,13.0738414 C637.897211,13.0740819 638.737594,13.4219827 639.369862,14.0539846 C640.001293,14.6859863 640.34934,15.5251792 640.349581,16.4177667 C640.349821,17.3103543 640.002226,18.1493598 639.371135,18.7810215 L637.60993,20.5414853 C637.758907,21.098139 637.842674,21.675669 637.842833,22.2673844 C637.842869,22.4027769 637.832872,22.5364952 637.825383,22.6702141 C637.899779,22.6042094 637.975848,22.5407125 638.046898,22.4696923 L640.554546,19.9630993 C641.500765,19.0164425 642.022158,17.7579342 642.021797,16.4182171 C642.021436,15.0784999 641.499365,13.8197107 640.5518,12.8725438 Z" id="Shape" transform="translate(635.751325, 17.423741) rotate(-206.000000) translate(-635.751325, -17.423741) "></path>
                <path d="M536.938146,19.8830822 C536.564148,19.5089129 536.135228,19.2125982 535.67199,18.9903262 C535.385913,19.2780616 535.227292,19.6612566 535.227395,20.0673944 C535.227436,20.2300022 535.257998,20.3842202 535.305346,20.5315717 C535.503011,20.654532 535.690761,20.7935216 535.859442,20.9622796 C536.435705,21.5395691 536.754099,22.3061205 536.754306,23.1214498 C536.754513,23.9367791 536.437272,24.7039324 535.861302,25.2809292 L533.57268,27.5698349 C532.419215,28.7238281 530.409294,28.7233174 529.256006,27.5687381 C528.67898,26.9914483 528.361349,26.2248971 528.361142,25.4095678 C528.360935,24.5942386 528.678177,23.8278486 529.254146,23.2508518 L530.859233,21.6450306 C530.724041,21.1357972 530.649126,20.6074937 530.648988,20.0662311 C530.648957,19.9425576 530.658846,19.81965 530.666445,19.6975052 C530.598548,19.7577979 530.529123,19.8165633 530.463516,19.8814371 L528.174894,22.1711062 C527.310558,23.0358379 526.834696,24.1854228 526.835007,25.4091801 C526.835317,26.6329374 527.311764,27.7827642 528.176539,28.6479353 C529.042078,29.5138699 530.191379,29.990534 531.414577,29.9908448 C532.637774,29.9911556 533.786833,29.5150755 534.651932,28.6495805 L536.940554,26.3606749 C537.804127,25.4951796 538.280752,24.3455949 538.280442,23.1218376 C538.280131,21.8980803 537.802921,20.7482532 536.938146,19.8830822 Z" id="Shape" transform="translate(532.557724, 24.490586) rotate(-66.000000) translate(-532.557724, -24.490586) "></path>
                <path d="M533.819022,13.0986868 C532.953483,12.2327522 531.804182,11.756088 530.580985,11.7557772 C529.357787,11.7554665 528.208728,12.2315466 527.343629,13.0970415 L525.055007,15.3859472 C524.191434,16.2514425 523.714809,17.4010272 523.71512,18.6247845 C523.715431,19.8485418 524.191877,20.9983687 525.056652,21.8635397 C525.43065,22.237709 525.85957,22.5340237 526.322808,22.7562957 C526.609649,22.4685604 526.768269,22.0853655 526.768166,21.6792277 C526.768124,21.5128028 526.736798,21.3547675 526.687161,21.2043618 C526.490259,21.0859822 526.303273,20.9508099 526.136882,20.7843427 C525.559856,20.207053 525.241462,19.4405015 525.241255,18.6251723 C525.241048,17.809843 525.55829,17.0426897 526.134259,16.4656929 L528.422881,14.1767872 C528.999614,13.5997906 529.766416,13.282404 530.581372,13.2826111 C531.396329,13.2828181 532.163293,13.6005944 532.740318,14.1778842 C533.316581,14.7551737 533.634212,15.521725 533.634419,16.3370542 C533.634626,17.1523835 533.317385,17.9187734 532.741415,18.4957702 L531.13404,20.1038812 C531.269995,20.6123513 531.346436,21.1398918 531.346573,21.680391 C531.346604,21.8040645 531.337479,21.9262089 531.330642,22.0483539 C531.39854,21.9880612 531.467964,21.9300591 531.532808,21.8651852 L533.82143,19.5755161 C534.685003,18.7107842 535.160865,17.5611993 535.160555,16.337442 C535.160244,15.1136847 534.683797,13.9638578 533.819022,13.0986868 Z" id="Shape" transform="translate(529.437837, 17.256036) rotate(-66.000000) translate(-529.437837, -17.256036) "></path>
                <path d="M414.205285,206.48505 C413.849204,206.129012 413.440759,205.84713 412.999577,205.635764 C412.726882,205.90988 412.575555,206.274811 412.575425,206.661498 C412.575373,206.816318 412.604401,206.963133 412.649424,207.1034 C412.837663,207.22036 413.016445,207.352588 413.177045,207.513168 C413.7257,208.062486 414.028589,208.792145 414.028328,209.568426 C414.028066,210.344706 413.725413,211.075296 413.176388,211.624983 L410.994832,213.805553 C409.895328,214.904927 407.980566,214.905572 406.882529,213.806938 C406.333147,213.257621 406.030985,212.527961 406.031247,211.75168 C406.031508,210.9754 406.334161,210.245536 406.883186,209.69585 L408.413184,208.166033 C408.284679,207.681265 408.213608,207.178306 408.213782,206.662966 C408.213821,206.545216 408.223311,206.428189 408.230619,206.31189 C408.165902,206.369333 408.099732,206.425323 408.037194,206.487127 L405.855638,208.668424 C405.031737,209.492227 404.577758,210.587022 404.577366,211.75217 C404.576973,212.917317 405.030216,214.011807 405.853562,214.835056 C406.677635,215.659031 407.772255,216.11222 408.937541,216.111827 C410.102827,216.111435 411.197752,215.65751 412.02238,214.832979 L414.203936,212.652409 C415.02711,211.827879 415.481817,210.733084 415.482209,209.567936 C415.482601,208.402789 415.028632,207.308299 414.205285,206.48505 Z" id="Shape" transform="translate(410.029787, 210.873796) rotate(-320.000000) translate(-410.029787, -210.873796) "></path>
                <path d="M421.65178,205.958112 C420.827707,205.134136 419.733087,204.680948 418.567801,204.68134 C417.402515,204.681732 416.30759,205.135658 415.482962,205.960188 L413.301406,208.140758 C412.478232,208.965288 412.023526,210.060084 412.023133,211.225231 C412.022741,212.390379 412.475984,213.484868 413.29933,214.308117 C413.655411,214.664156 414.063857,214.946038 414.505038,215.157404 C414.77846,214.883288 414.929787,214.518356 414.929917,214.13167 C414.92997,213.973215 414.900216,213.822767 414.853013,213.679592 C414.665501,213.566993 414.487444,213.4384 414.329024,213.279999 C413.779642,212.730682 413.476753,212.001022 413.477015,211.224742 C413.477276,210.448461 413.779929,209.717871 414.328954,209.168184 L416.51051,206.987614 C417.060262,206.437927 417.790939,206.13531 418.567312,206.135049 C419.343684,206.134787 420.074158,206.436913 420.62354,206.98623 C421.172195,207.535547 421.474357,208.265207 421.474095,209.041487 C421.473834,209.817767 421.171181,210.547631 420.622156,211.097318 L419.089976,212.629315 C419.219209,213.113357 419.291734,213.615589 419.291561,214.130201 C419.291521,214.247952 419.282759,214.364251 419.276177,214.48055 C419.340894,214.423107 419.407064,214.367844 419.468875,214.30604 L421.650431,212.124743 C422.473605,211.30094 422.927584,210.206145 422.927977,209.040998 C422.928369,207.87585 422.475126,206.78136 421.65178,205.958112 Z" id="Shape" transform="translate(417.475555, 209.919372) rotate(-320.000000) translate(-417.475555, -209.919372) "></path>
                <path d="M369.584292,149.443704 C369.174756,149.034282 368.704998,148.710132 368.197593,148.467068 C367.883976,148.782269 367.709947,149.201903 367.709808,149.646557 C367.709753,149.824586 367.743142,149.99341 367.794927,150.154706 C368.011421,150.289205 368.217042,150.441259 368.401751,150.625917 C369.03277,151.257597 369.38114,152.096647 369.380861,152.989298 C369.380582,153.881949 369.032524,154.722053 368.40111,155.354127 L365.892182,157.861522 C364.627682,159.12567 362.425531,159.126358 361.162657,157.862998 C360.530802,157.231319 360.183268,156.392268 360.183546,155.499617 C360.183825,154.606966 360.531883,153.767698 361.163297,153.135624 L362.922892,151.376518 C362.775086,150.819075 362.693334,150.240716 362.693519,149.648123 C362.693561,149.512721 362.704472,149.378151 362.712874,149.244418 C362.638445,149.310471 362.562344,149.374852 362.490422,149.445919 L359.981494,151.95415 C359.033956,152.901425 358.511868,154.160326 358.51145,155.500139 C358.511031,156.839952 359.032332,158.098528 359.979279,159.045211 C360.927062,159.992731 362.185988,160.513887 363.526173,160.513468 C364.866359,160.51305 366.125611,159.991108 367.073985,159.042996 L369.582913,156.535601 C370.529616,155.587491 371.052539,154.328589 371.052958,152.988776 C371.053376,151.648963 370.531239,150.390388 369.584292,149.443704 Z" id="Shape" transform="translate(364.782204, 154.490268) rotate(-147.000000) translate(-364.782204, -154.490268) "></path>
                <path d="M361.220135,152.067578 C360.272352,151.120059 359.013426,150.598903 357.673241,150.599322 C356.333055,150.59974 355.073804,151.121682 354.125429,152.069793 L351.616501,154.577188 C350.669798,155.525299 350.146875,156.784201 350.146457,158.124014 C350.146038,159.463826 350.667339,160.722402 351.614286,161.669086 C352.023822,162.078508 352.49358,162.402658 353.000985,162.645722 C353.315438,162.330521 353.489467,161.910887 353.489606,161.466233 C353.489663,161.284025 353.455439,161.111022 353.401147,160.946383 C353.185487,160.816899 352.980701,160.669024 352.7985,160.486873 C352.166644,159.855193 351.818274,159.016143 351.818553,158.123492 C351.818832,157.23084 352.16689,156.390737 352.798304,155.758663 L355.307232,153.251268 C355.939482,152.619194 356.779819,152.271232 357.672719,152.270953 C358.565618,152.270674 359.405738,152.618112 360.037593,153.249791 C360.668612,153.881471 361.016146,154.720521 361.015868,155.613173 C361.015589,156.505824 360.667531,157.345092 360.036117,157.977166 L358.274013,159.73878 C358.422656,160.295386 358.50608,160.872909 358.505896,161.464667 C358.505853,161.600069 358.495779,161.733803 358.488213,161.867535 C358.562642,161.801483 358.638742,161.737937 358.709828,161.66687 L361.218756,159.15864 C362.165459,158.211365 362.687546,156.952463 362.687964,155.61265 C362.688383,154.272838 362.167082,153.014262 361.220135,152.067578 Z" id="Shape" transform="translate(356.417210, 156.622521) rotate(-147.000000) translate(-356.417210, -156.622521) "></path>
                <path d="M274.848227,212.855988 C274.527521,212.53537 274.159725,212.281458 273.762507,212.090986 C273.517222,212.337512 273.38123,212.665836 273.381339,213.013826 C273.381382,213.153153 273.407596,213.285293 273.448201,213.41155 C273.617698,213.516915 273.778692,213.636015 273.923338,213.78062 C274.417487,214.275286 274.690535,214.932105 274.690753,215.630702 C274.690971,216.329298 274.418989,216.986601 273.925147,217.480959 L271.962864,219.442042 C270.973873,220.430758 269.250451,220.43022 268.261497,219.440886 C267.766692,218.94622 267.494299,218.289401 267.494081,217.590805 C267.493863,216.892208 267.765846,216.23556 268.259687,215.741202 L269.635901,214.36537 C269.519954,213.929038 269.455692,213.476369 269.455547,213.0126 C269.455514,212.906633 269.463987,212.801323 269.470497,212.696666 C269.412281,212.748324 269.352755,212.798672 269.296503,212.854254 L267.33422,214.815992 C266.593131,215.556875 266.185156,216.541847 266.185483,217.590396 C266.185811,218.638945 266.594401,219.624173 267.335953,220.365518 C268.078159,221.107518 269.06366,221.515995 270.112501,221.516322 C271.161342,221.51665 272.146588,221.108789 272.888331,220.367252 L274.850615,218.406169 C275.591049,217.664631 275.999678,216.679659 275.999351,215.63111 C275.999023,214.582561 275.589779,213.597333 274.848227,212.855988 Z" id="Shape" transform="translate(271.092417, 216.803654) rotate(-33.000000) translate(-271.092417, -216.803654) "></path>
                <path d="M275.985722,206.585592 C275.243516,205.843592 274.258015,205.435115 273.209174,205.434788 C272.160333,205.43446 271.175087,205.842322 270.433344,206.583858 L268.47106,208.544942 C267.730626,209.286479 267.321997,210.271451 267.322324,211.32 C267.322652,212.368549 267.731242,213.353777 268.472794,214.095122 C268.7935,214.41574 269.161295,214.669652 269.558514,214.860124 C269.804453,214.613599 269.940445,214.285274 269.940336,213.937284 C269.940292,213.794687 269.913423,213.659276 269.870853,213.530402 C269.702013,213.428961 269.541673,213.313132 269.398992,213.17049 C268.904188,212.675824 268.63114,212.019005 268.630922,211.320409 C268.630703,210.621812 268.902686,209.96451 269.396527,209.470152 L271.358811,207.509068 C271.853306,207.01471 272.510791,206.742803 273.209582,206.743021 C273.908373,206.74324 274.566028,207.015557 275.060833,207.510224 C275.554983,208.004891 275.827376,208.661709 275.827594,209.360306 C275.827812,210.058902 275.555829,210.71555 275.061988,211.209909 L273.683811,212.587702 C273.800413,213.02338 273.865984,213.475395 273.866128,213.93851 C273.866161,214.044477 273.858342,214.149133 273.852486,214.25379 C273.910703,214.202133 273.970229,214.152439 274.025827,214.096856 L275.98811,212.135119 C276.728544,211.394236 277.136519,210.409263 277.136192,209.360714 C277.135864,208.312165 276.727274,207.326938 275.985722,206.585592 Z" id="Shape" transform="translate(272.229258, 210.147456) rotate(-33.000000) translate(-272.229258, -210.147456) "></path>
                <path d="M314.055504,49.1564221 C313.699226,48.8001013 313.290638,48.5179108 312.849367,48.3062226 C312.576889,48.5801874 312.425826,48.9450607 312.425956,49.3317931 C312.426008,49.4866315 312.455132,49.6334833 312.500244,49.773798 C312.688538,49.8908988 312.867389,50.0232622 313.028078,50.1839701 C313.577038,50.733722 313.880382,51.4636724 313.880643,52.240045 C313.880905,53.0164176 313.578779,53.7468911 313.030189,54.2962734 L310.85036,56.4756342 C309.751726,57.5743985 307.837192,57.5737539 306.738545,56.47425 C306.188858,55.9244979 305.886241,55.1945477 305.88598,54.4181752 C305.885719,53.6418026 306.187844,52.912056 306.736434,52.3626736 L308.265221,50.8337054 C308.136404,50.3487927 308.065003,49.8457259 308.06483,49.330325 C308.06479,49.2125606 308.0742,49.0955263 308.081429,48.9792183 C308.016759,49.0366248 307.950634,49.092577 307.888145,49.1543459 L305.708316,51.3344336 C304.885068,52.1577801 304.431879,53.2524 304.432271,54.4176858 C304.432663,55.5829716 304.886589,56.6778968 305.710392,57.5017978 C306.534923,58.3264259 307.629718,58.7804054 308.794865,58.7807976 C309.960013,58.7811899 311.054503,58.3279474 311.878478,57.5038743 L314.058307,55.3245135 C314.880829,54.5004398 315.334744,53.4058202 315.334352,52.2405344 C315.33396,51.0752486 314.879307,49.9803231 314.055504,49.1564221 Z" id="Shape" transform="translate(309.883312, 53.543510) rotate(-50.000000) translate(-309.883312, -53.543510) "></path>
                <path d="M313.100371,42.1435104 C312.27584,41.3188823 311.181045,40.8649028 310.015898,40.8645106 C308.85075,40.8641184 307.75626,41.3173608 306.932285,42.1414339 L304.752456,44.3207948 C303.929934,45.1448684 303.476019,46.239488 303.476411,47.4047738 C303.476803,48.5700596 303.930729,49.6649849 304.754532,50.4888858 C305.110811,50.8452066 305.519398,51.1273971 305.960669,51.3390854 C306.233874,51.0651208 306.384937,50.7002475 306.384807,50.3135151 C306.384754,50.155042 306.354902,50.0045553 306.307608,49.8613321 C306.120042,49.7485931 305.941919,49.6198647 305.783412,49.4613383 C305.233725,48.9115862 304.930381,48.1816358 304.93012,47.4052632 C304.929858,46.6288907 305.231984,45.8984171 305.780574,45.3490348 L307.960403,43.169674 C308.50972,42.6202919 309.240107,42.3181305 310.016387,42.3183918 C310.792667,42.3186532 311.523258,42.6213064 312.072945,43.1710585 C312.621905,43.7208103 312.924522,44.4507605 312.924783,45.2271331 C312.925044,46.0035056 312.622919,46.7332522 312.074329,47.2826346 L310.543362,48.8137829 C310.672905,49.2979689 310.74576,49.8003093 310.745933,50.3149832 C310.745973,50.4327476 310.73729,50.5490552 310.730787,50.6653635 C310.795458,50.607957 310.861583,50.5527317 310.923345,50.4909626 L313.103174,48.3108748 C313.925695,47.4875281 314.378884,46.3929082 314.378492,45.2276224 C314.3781,44.0623366 313.924174,42.9674114 313.100371,42.1435104 Z" id="Shape" transform="translate(308.927451, 46.101798) rotate(-50.000000) translate(-308.927451, -46.101798) "></path>
                <path d="M204.403285,253.876699 C204.118204,253.591739 203.791262,253.366069 203.438161,253.196788 C203.220104,253.415915 203.099202,253.707743 203.099285,254.017046 C203.099319,254.140883 203.122616,254.258331 203.158708,254.37055 C203.309378,254.464196 203.45249,254.570048 203.581067,254.698571 C204.020324,255.138224 204.263025,255.722011 204.263192,256.342941 C204.26336,256.963872 204.021555,257.548109 203.582535,257.987526 L201.838083,259.730662 C200.95888,260.609495 199.426839,260.609082 198.547744,259.729776 C198.107905,259.290122 197.865786,258.706336 197.865618,258.085405 C197.865451,257.464475 198.107256,256.880819 198.546276,256.441402 L199.769718,255.218475 C199.666663,254.830657 199.609554,254.428315 199.609443,254.016106 C199.609418,253.92192 199.616954,253.828317 199.622745,253.735296 C199.570992,253.781212 199.518074,253.825965 199.468067,253.87537 L197.723615,255.619087 C197.064794,256.277631 196.702087,257.153115 196.702338,258.085092 C196.702589,259.017069 197.065768,259.892749 197.724944,260.551647 C198.384702,261.211128 199.26075,261.574154 200.19312,261.574405 C201.125489,261.574656 202.001342,261.212101 202.660744,260.552977 L204.405196,258.809841 C205.063435,258.150716 205.426724,257.275232 205.426473,256.343255 C205.426222,255.411278 205.062461,254.535598 204.403285,253.876699 Z" id="Shape" transform="translate(201.064405, 257.385597) rotate(-206.000000) translate(-201.064405, -257.385597) "></path>
                <path d="M202.679311,259.968933 C202.019553,259.309453 201.143505,258.946426 200.211135,258.946175 C199.278766,258.945924 198.402913,259.308479 197.743511,259.967604 L195.999059,261.71074 C195.34082,262.369865 194.977531,263.245349 194.977782,264.177326 C194.978033,265.109303 195.341213,265.984983 196.000389,266.643881 C196.285469,266.928842 196.612412,267.154511 196.965513,267.323793 C197.184151,267.104665 197.305053,266.812837 197.30497,266.503535 C197.304936,266.376791 197.281056,266.256435 197.243219,266.14189 C197.093131,266.051734 196.950602,265.948788 196.82377,265.82201 C196.383931,265.382356 196.14123,264.79857 196.141063,264.177639 C196.140895,263.556709 196.3827,262.972471 196.82172,262.533055 L198.566172,260.789919 C199.005773,260.350502 199.590257,260.108799 200.211449,260.108967 C200.832641,260.109134 201.417254,260.351152 201.857093,260.790805 C202.29635,261.230459 202.538469,261.814245 202.538637,262.435176 C202.538804,263.056106 202.296999,263.639762 201.857979,264.079179 L200.632793,265.303849 C200.736429,265.691087 200.794701,266.092847 200.794812,266.504475 C200.794837,266.598661 200.787883,266.691682 200.782673,266.784704 C200.834427,266.738788 200.887344,266.694616 200.93677,266.645211 L202.681221,264.901494 C203.339461,264.24295 203.702168,263.367466 203.701917,262.435489 C203.701666,261.503512 203.338487,260.627832 202.679311,259.968933 Z" id="Shape" transform="translate(199.339850, 263.134984) rotate(-206.000000) translate(-199.339850, -263.134984) "></path>
                <path d="M20.3159668,390.515086 C19.9421103,390.141221 19.5132744,389.845226 19.0500677,389.623278 C18.7637569,389.911121 18.6048735,390.294328 18.6047348,390.700378 C18.6046792,390.86295 18.6351559,391.017116 18.682426,391.164408 C18.8800615,391.287224 19.0677694,391.426071 19.2363863,391.594692 C19.8124303,392.171514 20.1304368,392.937709 20.1301583,393.752862 C20.1298798,394.568014 19.8121128,395.335191 19.2356746,395.912406 L16.9451929,398.202179 C15.79079,399.356609 13.7804337,399.357296 12.6275825,398.203654 C12.0507753,397.626833 11.7335321,396.860637 11.7338105,396.045484 C11.734089,395.230332 12.0518558,394.463919 12.628294,393.886704 L14.2346853,392.280274 C14.0997669,391.771232 14.0251505,391.243087 14.0253354,390.701942 C14.0253776,390.578295 14.0353416,390.455408 14.0430157,390.333286 C13.9750673,390.393606 13.905593,390.4524 13.8399328,390.517298 L11.5494509,392.807835 C10.6844122,393.672894 10.207762,394.822514 10.2073441,396.046006 C10.2069261,397.269498 10.682791,398.418792 11.5472388,399.28326 C12.4124496,400.148492 13.5617162,400.624368 14.7851791,400.62395 C16.0086419,400.623532 17.1582339,400.14687 18.024036,399.281048 L20.3145177,396.991274 C21.1787934,396.125452 21.6562068,394.975832 21.6566248,393.75234 C21.6570427,392.528848 21.1804146,391.379555 20.3159668,390.515086 Z" id="Shape" transform="translate(15.931984, 395.123614) rotate(-134.000000) translate(-15.931984, -395.123614) "></path>
                <path d="M12.4366863,391.143967 C11.5714755,390.278735 10.4222089,389.802859 9.19874604,389.803277 C7.97528317,389.803695 6.82569122,390.280357 5.95988906,391.146179 L3.66940741,393.435953 C2.80513172,394.301775 2.32771828,395.451395 2.32730032,396.674887 C2.32688236,397.898379 2.80274723,399.047673 3.66719507,399.912141 C4.04105159,400.286007 4.46988751,400.582002 4.9330942,400.80395 C5.2201682,400.516106 5.3790516,400.132899 5.37919031,399.72685 C5.37924715,399.560461 5.34800856,399.402478 5.29844977,399.252135 C5.10157601,399.133898 4.91463001,398.998866 4.74830201,398.832534 C4.1714948,398.255713 3.85348832,397.489518 3.85376679,396.674365 C3.85404525,395.859213 4.17181232,395.092037 4.74825052,394.514822 L7.03873217,392.225048 C7.61593361,391.647833 8.38309148,391.330058 9.19822457,391.32978 C10.0133577,391.329502 10.7802986,391.646752 11.3571058,392.223573 C11.9331498,392.800394 12.250393,393.56659 12.2501146,394.381743 C12.2498361,395.196895 11.9320693,395.963308 11.3556311,396.540523 L9.74694929,398.149243 C9.88263116,398.657522 9.95877431,399.184903 9.95858971,399.725285 C9.95854747,399.848932 9.94934696,399.971055 9.94243614,400.093178 C10.0103845,400.032858 10.0798585,399.974827 10.1447555,399.909928 L12.4352374,397.619392 C13.2995129,396.754333 13.7761631,395.604713 13.776581,394.381221 C13.776999,393.157729 13.3011341,392.008435 12.4366863,391.143967 Z" id="Shape" transform="translate(8.051941, 395.303613) rotate(-134.000000) translate(-8.051941, -395.303613) "></path>
                <path d="M1110.38396,406.206409 L1109.00303,406.205971 L1108.9986,392.211403 L1097.2607,392.207683 L1097.26026,390.808226 L1109.68862,390.812165 C1110.06975,390.812286 1110.37918,391.125862 1110.3793,391.512113 L1110.38396,406.206409 Z" id="Shape" transform="translate(1103.822110, 398.507317) rotate(-236.000000) translate(-1103.822110, -398.507317) "></path>
                <path d="M1108.95974,388.336979 L1097.90712,388.336979 C1097.5258,388.336979 1097.21633,388.65031 1097.21633,389.036378 L1097.21633,401.625572 C1097.21633,402.011641 1097.5258,402.324972 1097.90712,402.324972 L1108.95974,402.324972 C1109.34105,402.324972 1109.65053,402.011641 1109.65053,401.625572 L1109.65053,389.036378 C1109.65053,388.65031 1109.34105,388.336979 1108.95974,388.336979 Z M1104.12422,398.827973 L1099.97949,398.827973 L1099.97949,397.429174 L1104.12422,397.429174 L1104.12422,398.827973 Z M1106.88737,396.030375 L1099.97949,396.030375 L1099.97949,394.631576 L1106.88737,394.631576 L1106.88737,396.030375 Z M1106.88737,393.232776 L1099.97949,393.232776 L1099.97949,391.833977 L1106.88737,391.833977 L1106.88737,393.232776 Z" id="Shape" transform="translate(1103.433429, 395.330975) rotate(-236.000000) translate(-1103.433429, -395.330975) "></path>
                <path d="M1089.67132,231.476644 L1088.36291,231.477091 L1088.36746,218.150638 L1077.24593,218.154439 L1077.24639,216.821794 L1089.02212,216.817769 C1089.38325,216.817645 1089.67623,217.116058 1089.6761,217.483868 L1089.67132,231.476644 Z" id="Shape" transform="translate(1083.461018, 224.147430) rotate(-135.000000) translate(-1083.461018, -224.147430) "></path>
                <path d="M1091.73287,217.692273 L1081.26196,217.692273 C1080.90072,217.692273 1080.60753,217.990684 1080.60753,218.358368 L1080.60753,230.348076 C1080.60753,230.715761 1080.90072,231.014171 1081.26196,231.014171 L1091.73287,231.014171 C1092.09411,231.014171 1092.3873,230.715761 1092.3873,230.348076 L1092.3873,218.358368 C1092.3873,217.990684 1092.09411,217.692273 1091.73287,217.692273 Z M1087.15185,227.683697 L1083.22526,227.683697 L1083.22526,226.351507 L1087.15185,226.351507 L1087.15185,227.683697 Z M1089.76957,225.019317 L1083.22526,225.019317 L1083.22526,223.687127 L1089.76957,223.687127 L1089.76957,225.019317 Z M1089.76957,222.354938 L1083.22526,222.354938 L1083.22526,221.022748 L1089.76957,221.022748 L1089.76957,222.354938 Z" id="Shape" transform="translate(1086.497415, 224.353222) rotate(-135.000000) translate(-1086.497415, -224.353222) "></path>
                <path d="M735.3464,333.73678 L734.110342,333.73652 L734.107678,321.079799 L723.60118,321.077589 L723.600914,319.811917 L734.72544,319.814257 C735.066593,319.814329 735.343529,320.097898 735.343603,320.447223 L735.3464,333.73678 Z" id="Shape" transform="translate(729.473657, 326.774348) rotate(-199.000000) translate(-729.473657, -326.774348) "></path>
                <path d="M735.845179,317.947695 L725.955995,317.947695 C725.614818,317.947695 725.337921,318.231185 725.337921,318.580485 L725.337921,329.970708 C725.337921,330.320008 725.614818,330.603498 725.955995,330.603498 L735.845179,330.603498 C736.186356,330.603498 736.463253,330.320008 736.463253,329.970708 L736.463253,318.580485 C736.463253,318.231185 736.186356,317.947695 735.845179,317.947695 Z M731.518661,327.439548 L727.810217,327.439548 L727.810217,326.173967 L731.518661,326.173967 L731.518661,327.439548 Z M733.990957,324.908387 L727.810217,324.908387 L727.810217,323.642807 L733.990957,323.642807 L733.990957,324.908387 Z M733.990957,322.377226 L727.810217,322.377226 L727.810217,321.111646 L733.990957,321.111646 L733.990957,322.377226 Z" id="Shape" transform="translate(730.900587, 324.275597) rotate(-199.000000) translate(-730.900587, -324.275597) "></path>
                <path d="M788.635459,239.759545 L787.400047,239.759828 L787.40279,227.762973 L776.90179,227.765375 L776.902064,226.56569 L788.020771,226.563146 C788.361744,226.563068 788.638415,226.831734 788.638339,227.162847 L788.635459,239.759545 Z" id="Shape" transform="translate(782.770065, 233.161487) rotate(-291.000000) translate(-782.770065, -233.161487) "></path>
                <path d="M785.25774,225.792134 L775.368555,225.792134 C775.027378,225.792134 774.750481,226.060703 774.750481,226.391619 L774.750481,237.182357 C774.750481,237.513273 775.027378,237.781842 775.368555,237.781842 L785.25774,237.781842 C785.598917,237.781842 785.875814,237.513273 785.875814,237.182357 L785.875814,226.391619 C785.875814,226.060703 785.598917,225.792134 785.25774,225.792134 Z M780.931222,234.784415 L777.222777,234.784415 L777.222777,233.585444 L780.931222,233.585444 L780.931222,234.784415 Z M783.403518,232.386474 L777.222777,232.386474 L777.222777,231.187503 L783.403518,231.187503 L783.403518,232.386474 Z M783.403518,229.988532 L777.222777,229.988532 L777.222777,228.789561 L783.403518,228.789561 L783.403518,229.988532 Z" id="Shape" transform="translate(780.313148, 231.786988) rotate(-291.000000) translate(-780.313148, -231.786988) "></path>
                <path d="M705.956113,78.674606 L704.212138,78.6744617 L704.210705,61.3443262 L689.386915,61.3430999 L689.386772,59.6100864 L705.08255,59.6113847 C705.563887,59.6114246 705.95457,59.9996519 705.954609,60.4779637 L705.956113,78.674606 Z" id="Shape" transform="translate(697.671443, 69.142346) rotate(-263.000000) translate(-697.671443, -69.142346) "></path>
                <path d="M702.444064,57.1373466 L688.482862,57.1373466 C688.001201,57.1373466 687.610287,57.5252803 687.610287,58.00327 L687.610287,73.5898909 C687.610287,74.0678806 688.001201,74.4558143 688.482862,74.4558143 L702.444064,74.4558143 C702.925726,74.4558143 703.316639,74.0678806 703.316639,73.5898909 L703.316639,58.00327 C703.316639,57.5252803 702.925726,57.1373466 702.444064,57.1373466 Z M696.336038,70.1261974 L691.100588,70.1261974 L691.100588,68.3943506 L696.336038,68.3943506 L696.336038,70.1261974 Z M699.826339,66.6625038 L691.100588,66.6625038 L691.100588,64.9306571 L699.826339,64.9306571 L699.826339,66.6625038 Z M699.826339,63.1988103 L691.100588,63.1988103 L691.100588,61.4669635 L699.826339,61.4669635 L699.826339,63.1988103 Z" id="Shape" transform="translate(695.463463, 65.796580) rotate(-263.000000) translate(-695.463463, -65.796580) "></path>
                <path d="M482.333654,429.739995 L480.952259,429.739623 L480.94849,415.749792 L469.206625,415.74663 L469.206248,414.347646 L481.638811,414.350995 C482.020076,414.351097 482.329593,414.664553 482.329697,415.050672 L482.333654,429.739995 Z" id="Shape" transform="translate(475.769951, 422.043821) rotate(-206.000000) translate(-475.769951, -422.043821) "></path>
                <path d="M482.54891,412.104824 L471.496292,412.104824 C471.114976,412.104824 470.805503,412.418155 470.805503,412.804223 L470.805503,425.393417 C470.805503,425.779486 471.114976,426.092817 471.496292,426.092817 L482.54891,426.092817 C482.930225,426.092817 483.239699,425.779486 483.239699,425.393417 L483.239699,412.804223 C483.239699,412.418155 482.930225,412.104824 482.54891,412.104824 Z M477.713389,422.595818 L473.568658,422.595818 L473.568658,421.197019 L477.713389,421.197019 L477.713389,422.595818 Z M480.476544,419.79822 L473.568658,419.79822 L473.568658,418.39942 L480.476544,418.39942 L480.476544,419.79822 Z M480.476544,417.000621 L473.568658,417.000621 L473.568658,415.601822 L480.476544,415.601822 L480.476544,417.000621 Z" id="Shape" transform="translate(477.022601, 419.098820) rotate(-206.000000) translate(-477.022601, -419.098820) "></path>
                <path d="M45.7379936,166.850069 L43.9201824,166.850321 L43.9226837,148.865227 L28.471289,148.867374 L28.4715392,147.068865 L44.8318394,147.066591 C45.3335553,147.066521 45.740689,147.469331 45.7406199,147.96572 L45.7379936,166.850069 Z" id="Shape" transform="translate(37.105954, 156.958456) rotate(-348.000000) translate(-37.105954, -156.958456) "></path>
                <path d="M40.7030326,149.94468 L26.1601139,149.94468 C25.6583832,149.94468 25.2511815,150.347534 25.2511815,150.843908 L25.2511815,167.030015 C25.2511815,167.526388 25.6583832,167.929243 26.1601139,167.929243 L40.7030326,167.929243 C41.2047633,167.929243 41.6119651,167.526388 41.6119651,167.030015 L41.6119651,150.843908 C41.6119651,150.347534 41.2047633,149.94468 40.7030326,149.94468 Z M34.3405057,163.433102 L28.8869112,163.433102 L28.8869112,161.634646 L34.3405057,161.634646 L34.3405057,163.433102 Z M37.9762354,159.836189 L28.8869112,159.836189 L28.8869112,158.037733 L37.9762354,158.037733 L37.9762354,159.836189 Z M37.9762354,156.239277 L28.8869112,156.239277 L28.8869112,154.440821 L37.9762354,154.440821 L37.9762354,156.239277 Z" id="Shape" transform="translate(33.431573, 158.936961) rotate(-348.000000) translate(-33.431573, -158.936961) "></path>
                <path d="M942.911806,338.918135 L942.911759,339.91728 C942.911721,340.711934 942.130324,340.88116 941.90389,340.91381 C941.374458,340.899181 940.948445,340.458911 940.948471,339.917374 L940.949058,327.594577 L950.765495,327.59411 L950.76502,337.585567 L952.073878,337.585505 L952.074385,326.927951 C952.074403,326.560265 951.781233,326.261868 951.419988,326.261885 L940.294692,326.262414 C939.933447,326.262431 939.640249,326.560856 939.640231,326.928542 L939.639613,339.917436 C939.639552,341.203004 940.666956,342.248727 941.930004,342.248667 L951.746442,342.2482 C953.00949,342.24814 954.036993,341.202319 954.037055,339.916751 L954.037102,338.917606 L942.911806,338.918135 Z" id="Shape" transform="translate(946.838358, 334.255276) rotate(-356.000000) translate(-946.838358, -334.255276) "></path>
                <polygon id="Rectangle-path" transform="translate(946.138325, 330.200022) rotate(-356.000000) translate(-946.138325, -330.200022) " points="943.193425 329.534065 949.083288 329.533785 949.083224 330.865979 943.193362 330.866259"></polygon>
                <polygon id="Rectangle-path" transform="translate(945.952340, 332.857911) rotate(-356.000000) translate(-945.952340, -332.857911) " points="943.00744 332.191954 948.897303 332.191674 948.897239 333.523868 943.007377 333.524148"></polygon>
                <polygon id="Rectangle-path" transform="translate(945.766355, 335.515801) rotate(-356.000000) translate(-945.766355, -335.515801) " points="942.821455 334.849843 948.711318 334.849563 948.711255 336.181758 942.821392 336.182038"></polygon>
                <path d="M1043.50806,444.196844 L1043.50806,458.118227 C1043.50806,458.467528 1043.80125,458.751018 1044.16249,458.751018 L1057.25112,458.751018 C1057.61237,458.751018 1057.90555,458.467528 1057.90555,458.118227 L1057.90555,444.196844 C1057.90555,443.847544 1057.61237,443.564054 1057.25112,443.564054 L1044.16249,443.564054 C1043.80125,443.564054 1043.50806,443.847544 1043.50806,444.196844 Z M1046.12579,446.728004 L1050.05238,446.728004 L1050.05238,450.524745 L1046.12579,450.524745 L1046.12579,446.728004 Z M1055.28783,455.587067 L1046.12579,455.587067 L1046.12579,454.321486 L1055.28783,454.321486 L1055.28783,455.587067 Z M1055.28783,453.055906 L1046.12579,453.055906 L1046.12579,451.790326 L1055.28783,451.790326 L1055.28783,453.055906 Z M1055.28783,450.524745 L1051.36124,450.524745 L1051.36124,449.259165 L1055.28783,449.259165 L1055.28783,450.524745 Z M1055.28783,447.993585 L1051.36124,447.993585 L1051.36124,446.728004 L1055.28783,446.728004 L1055.28783,447.993585 Z" id="Shape" transform="translate(1050.706808, 451.157536) rotate(-162.000000) translate(-1050.706808, -451.157536) "></path>
                <path d="M1096.26646,173.496425 L1096.26646,190.348627 C1096.26646,190.771464 1096.60851,191.114636 1097.02997,191.114636 L1112.30003,191.114636 C1112.72149,191.114636 1113.06353,190.771464 1113.06353,190.348627 L1113.06353,173.496425 C1113.06353,173.073588 1112.72149,172.730416 1112.30003,172.730416 L1097.02997,172.730416 C1096.60851,172.730416 1096.26646,173.073588 1096.26646,173.496425 Z M1099.32048,176.560462 L1103.9015,176.560462 L1103.9015,181.156517 L1099.32048,181.156517 L1099.32048,176.560462 Z M1110.00952,187.28459 L1099.32048,187.28459 L1099.32048,185.752572 L1110.00952,185.752572 L1110.00952,187.28459 Z M1110.00952,184.220553 L1099.32048,184.220553 L1099.32048,182.688535 L1110.00952,182.688535 L1110.00952,184.220553 Z M1110.00952,181.156517 L1105.4285,181.156517 L1105.4285,179.624499 L1110.00952,179.624499 L1110.00952,181.156517 Z M1110.00952,178.09248 L1105.4285,178.09248 L1105.4285,176.560462 L1110.00952,176.560462 L1110.00952,178.09248 Z" id="Shape" transform="translate(1104.664999, 181.922526) rotate(-73.000000) translate(-1104.664999, -181.922526) "></path>
                <path d="M1004.46024,256.123572 L1004.46024,269.312252 C1004.46024,269.643168 1004.72085,269.911737 1005.04195,269.911737 L1016.67629,269.911737 C1016.9974,269.911737 1017.25801,269.643168 1017.25801,269.312252 L1017.25801,256.123572 C1017.25801,255.792656 1016.9974,255.524087 1016.67629,255.524087 L1005.04195,255.524087 C1004.72085,255.524087 1004.46024,255.792656 1004.46024,256.123572 Z M1006.7871,258.521514 L1010.2774,258.521514 L1010.2774,262.118427 L1006.7871,262.118427 L1006.7871,258.521514 Z M1014.93114,266.91431 L1006.7871,266.91431 L1006.7871,265.715339 L1014.93114,265.715339 L1014.93114,266.91431 Z M1014.93114,264.516368 L1006.7871,264.516368 L1006.7871,263.317397 L1014.93114,263.317397 L1014.93114,264.516368 Z M1014.93114,262.118427 L1011.44084,262.118427 L1011.44084,260.919456 L1014.93114,260.919456 L1014.93114,262.118427 Z M1014.93114,259.720485 L1011.44084,259.720485 L1011.44084,258.521514 L1014.93114,258.521514 L1014.93114,259.720485 Z" id="Shape" transform="translate(1010.859122, 262.717912) rotate(-300.000000) translate(-1010.859122, -262.717912) "></path>
                <path d="M955.49659,160.823935 L955.49659,177.676136 C955.49659,178.098973 955.838639,178.442145 956.260093,178.442145 L971.530158,178.442145 C971.951612,178.442145 972.293661,178.098973 972.293661,177.676136 L972.293661,160.823935 C972.293661,160.401098 971.951612,160.057926 971.530158,160.057926 L956.260093,160.057926 C955.838639,160.057926 955.49659,160.401098 955.49659,160.823935 Z M958.550603,163.887971 L963.131622,163.887971 L963.131622,168.484026 L958.550603,168.484026 L958.550603,163.887971 Z M969.239648,174.612099 L958.550603,174.612099 L958.550603,173.080081 L969.239648,173.080081 L969.239648,174.612099 Z M969.239648,171.548063 L958.550603,171.548063 L958.550603,170.016044 L969.239648,170.016044 L969.239648,171.548063 Z M969.239648,168.484026 L964.658629,168.484026 L964.658629,166.952008 L969.239648,166.952008 L969.239648,168.484026 Z M969.239648,165.41999 L964.658629,165.41999 L964.658629,163.887971 L969.239648,163.887971 L969.239648,165.41999 Z" id="Shape" transform="translate(963.895126, 169.250035) rotate(-234.000000) translate(-963.895126, -169.250035) "></path>
                <path d="M983.285786,42.6152098 L983.285786,60.2001155 C983.285786,60.6413367 983.644124,60.9994294 984.085647,60.9994294 L1000.08286,60.9994294 C1000.52438,60.9994294 1000.88272,60.6413367 1000.88272,60.2001155 L1000.88272,42.6152098 C1000.88272,42.1739886 1000.52438,41.8158959 1000.08286,41.8158959 L984.085647,41.8158959 C983.644124,41.8158959 983.285786,42.1739886 983.285786,42.6152098 Z M986.485229,45.8124654 L991.284392,45.8124654 L991.284392,50.6083488 L986.485229,50.6083488 L986.485229,45.8124654 Z M997.683276,57.0028599 L986.485229,57.0028599 L986.485229,55.4042321 L997.683276,55.4042321 L997.683276,57.0028599 Z M997.683276,53.8056043 L986.485229,53.8056043 L986.485229,52.2069765 L997.683276,52.2069765 L997.683276,53.8056043 Z M997.683276,50.6083488 L992.884113,50.6083488 L992.884113,49.009721 L997.683276,49.009721 L997.683276,50.6083488 Z M997.683276,47.4110932 L992.884113,47.4110932 L992.884113,45.8124654 L997.683276,45.8124654 L997.683276,47.4110932 Z" id="Shape" transform="translate(992.084252, 51.407663) rotate(-158.000000) translate(-992.084252, -51.407663) "></path>
                <path d="M828.38978,223.704755 L828.38978,236.893435 C828.38978,237.224351 828.666677,237.49292 829.007854,237.49292 L841.369335,237.49292 C841.710512,237.49292 841.987409,237.224351 841.987409,236.893435 L841.987409,223.704755 C841.987409,223.37384 841.710512,223.10527 841.369335,223.10527 L829.007854,223.10527 C828.666677,223.10527 828.38978,223.37384 828.38978,223.704755 Z M830.862076,226.102697 L834.57052,226.102697 L834.57052,229.69961 L830.862076,229.69961 L830.862076,226.102697 Z M839.515113,234.495493 L830.862076,234.495493 L830.862076,233.296522 L839.515113,233.296522 L839.515113,234.495493 Z M839.515113,232.097551 L830.862076,232.097551 L830.862076,230.898581 L839.515113,230.898581 L839.515113,232.097551 Z M839.515113,229.69961 L835.806668,229.69961 L835.806668,228.500639 L839.515113,228.500639 L839.515113,229.69961 Z M839.515113,227.301668 L835.806668,227.301668 L835.806668,226.102697 L839.515113,226.102697 L839.515113,227.301668 Z" id="Shape" transform="translate(835.188594, 230.299095) rotate(-348.000000) translate(-835.188594, -230.299095) "></path>
                <path d="M388.512732,290.248502 L388.512732,307.833407 C388.512732,308.274629 388.871069,308.632721 389.312592,308.632721 L405.309803,308.632721 C405.751326,308.632721 406.109663,308.274629 406.109663,307.833407 L406.109663,290.248502 C406.109663,289.807281 405.751326,289.449188 405.309803,289.449188 L389.312592,289.449188 C388.871069,289.449188 388.512732,289.807281 388.512732,290.248502 Z M391.712174,293.445757 L396.511337,293.445757 L396.511337,298.241641 L391.712174,298.241641 L391.712174,293.445757 Z M402.910221,304.636152 L391.712174,304.636152 L391.712174,303.037524 L402.910221,303.037524 L402.910221,304.636152 Z M402.910221,301.438896 L391.712174,301.438896 L391.712174,299.840269 L402.910221,299.840269 L402.910221,301.438896 Z M402.910221,298.241641 L398.111058,298.241641 L398.111058,296.643013 L402.910221,296.643013 L402.910221,298.241641 Z M402.910221,295.044385 L398.111058,295.044385 L398.111058,293.445757 L402.910221,293.445757 L402.910221,295.044385 Z" id="Shape" transform="translate(397.311197, 299.040955) rotate(-272.000000) translate(-397.311197, -299.040955) "></path>
                <path d="M587.886214,74.8521669 L587.886214,89.5062549 C587.886214,89.8739393 588.179399,90.1723499 588.540646,90.1723499 L601.629272,90.1723499 C601.990518,90.1723499 602.283704,89.8739393 602.283704,89.5062549 L602.283704,74.8521669 C602.283704,74.4844825 601.990518,74.186072 601.629272,74.186072 L588.540646,74.186072 C588.179399,74.186072 587.886214,74.4844825 587.886214,74.8521669 Z M590.50394,77.5165465 L594.430528,77.5165465 L594.430528,81.513116 L590.50394,81.513116 L590.50394,77.5165465 Z M599.665978,86.8418753 L590.50394,86.8418753 L590.50394,85.5096855 L599.665978,85.5096855 L599.665978,86.8418753 Z M599.665978,84.1774957 L590.50394,84.1774957 L590.50394,82.8453058 L599.665978,82.8453058 L599.665978,84.1774957 Z M599.665978,81.513116 L595.73939,81.513116 L595.73939,80.1809262 L599.665978,80.1809262 L599.665978,81.513116 Z M599.665978,78.8487364 L595.73939,78.8487364 L595.73939,77.5165465 L599.665978,77.5165465 L599.665978,78.8487364 Z" id="Shape" transform="translate(595.084959, 82.179211) rotate(-21.000000) translate(-595.084959, -82.179211) "></path>
                <path d="M255.999744,444.584243 L255.999744,464.367262 C255.999744,464.863636 256.406945,465.26649 256.908676,465.26649 L275.087324,465.26649 C275.589055,465.26649 275.996257,464.863636 275.996257,464.367262 L275.996257,444.584243 C275.996257,444.087869 275.589055,443.685015 275.087324,443.685015 L256.908676,443.685015 C256.406945,443.685015 255.999744,444.087869 255.999744,444.584243 Z M259.635473,448.181156 L265.089068,448.181156 L265.089068,453.576525 L259.635473,453.576525 L259.635473,448.181156 Z M272.360527,460.77035 L259.635473,460.77035 L259.635473,458.971893 L272.360527,458.971893 L272.360527,460.77035 Z M272.360527,457.173437 L259.635473,457.173437 L259.635473,455.374981 L272.360527,455.374981 L272.360527,457.173437 Z M272.360527,453.576525 L266.906933,453.576525 L266.906933,451.778068 L272.360527,451.778068 L272.360527,453.576525 Z M272.360527,449.979612 L266.906933,449.979612 L266.906933,448.181156 L272.360527,448.181156 L272.360527,449.979612 Z" id="Shape" transform="translate(265.998000, 454.475753) rotate(-79.000000) translate(-265.998000, -454.475753) "></path>
                <path d="M239.160931,173.826117 L239.160931,187.747501 C239.160931,188.096801 239.437828,188.380291 239.779005,188.380291 L252.140486,188.380291 C252.481662,188.380291 252.75856,188.096801 252.75856,187.747501 L252.75856,173.826117 C252.75856,173.476817 252.481662,173.193327 252.140486,173.193327 L239.779005,173.193327 C239.437828,173.193327 239.160931,173.476817 239.160931,173.826117 Z M241.633227,176.357278 L245.341671,176.357278 L245.341671,180.154019 L241.633227,180.154019 L241.633227,176.357278 Z M250.286263,185.21634 L241.633227,185.21634 L241.633227,183.95076 L250.286263,183.95076 L250.286263,185.21634 Z M250.286263,182.68518 L241.633227,182.68518 L241.633227,181.419599 L250.286263,181.419599 L250.286263,182.68518 Z M250.286263,180.154019 L246.577819,180.154019 L246.577819,178.888439 L250.286263,178.888439 L250.286263,180.154019 Z M250.286263,177.622858 L246.577819,177.622858 L246.577819,176.357278 L250.286263,176.357278 L250.286263,177.622858 Z" id="Shape" transform="translate(245.959745, 180.786809) rotate(-170.000000) translate(-245.959745, -180.786809) "></path>
                <path d="M1142.72441,24.2080249 C1142.14094,20.7379948 1139.22462,18.1987716 1135.72526,18.198523 C1132.14258,18.1982685 1129.14331,20.9063391 1128.72698,24.460932 C1127.14398,25.1378905 1126.14427,26.6612291 1126.14439,28.3539064 C1126.14456,30.7236548 1127.97769,32.5857301 1130.3106,32.5858958 L1141.97514,32.5867245 C1144.30805,32.5868903 1146.14092,30.7250754 1146.14075,28.3553271 C1146.1406,26.2394804 1144.64075,24.5466965 1142.72441,24.2080249 Z" id="Shape" transform="translate(1136.142571, 25.392624) rotate(-186.000000) translate(-1136.142571, -25.392624) "></path>
                <path d="M899.279626,303.982803 C898.604531,300.125425 895.22439,297.303771 891.16726,297.304921 C887.013532,297.306098 883.53514,300.31787 883.051029,304.269664 C881.215447,305.02288 880.055788,306.716776 880.055254,308.598517 C880.054508,311.232955 882.179085,313.302268 884.883838,313.301502 L898.407602,313.297669 C901.112355,313.296902 903.238105,311.226384 903.238851,308.591946 C903.239518,306.23977 901.501281,304.358521 899.279626,303.982803 Z" id="Shape" transform="translate(891.647053, 305.303211) rotate(-118.000000) translate(-891.647053, -305.303211) "></path>
                <path d="M836.01701,11.9213539 C835.458222,8.64370953 832.659985,6.24616714 829.301215,6.2471989 C825.862475,6.24825522 822.982744,8.80743526 822.581858,12.1653212 C821.062219,12.8053618 820.102128,14.2446979 820.101637,15.8436327 C820.100949,18.0821414 821.859764,19.8404293 824.098944,19.8397414 L835.294842,19.8363022 C837.534022,19.8356144 839.293917,18.0762457 839.294605,15.837737 C839.295219,13.8390685 837.856238,12.2405758 836.01701,11.9213539 Z" id="Shape" transform="translate(829.698121, 13.043470) rotate(-148.000000) translate(-829.698121, -13.043470) "></path>
                <path d="M772.334441,40.6893079 C771.821798,37.602861 769.257493,35.3446664 766.180104,35.3449209 C763.029443,35.3451816 760.391481,37.754367 760.024864,40.9161669 C758.632661,41.5185238 757.753295,42.8736406 757.753171,44.3792452 C757.752996,46.4870915 759.364825,48.1431232 761.416419,48.1429535 L771.674384,48.1421049 C773.725978,48.1419352 775.338081,46.4856369 775.338255,44.3777905 C775.33841,42.4957848 774.019654,40.9902894 772.334441,40.6893079 Z" id="Shape" transform="translate(766.545713, 41.743937) rotate(-277.000000) translate(-766.545713, -41.743937) "></path>
                <path d="M633.062761,250.706421 C632.527062,247.621774 629.845115,245.365314 626.626069,245.366157 C623.330379,245.367019 620.570567,247.775381 620.186519,250.935508 C618.730127,251.537799 617.810045,252.892337 617.809651,254.397112 C617.809099,256.503796 619.494832,258.158607 621.640863,258.158045 L632.371015,258.155236 C634.517045,258.154674 636.203646,256.498981 636.204197,254.392296 C636.20469,252.511328 634.825493,251.006914 633.062761,250.706421 Z" id="Shape" transform="translate(627.006924, 251.762101) rotate(-155.000000) translate(-627.006924, -251.762101) "></path>
                <path d="M416.323111,383.848186 C415.786798,380.763788 413.104147,378.5071 409.884741,378.507367 C406.588682,378.507639 403.828992,380.915237 403.445468,384.074942 C401.989021,384.676904 401.069078,386.031126 401.068954,387.535732 C401.06878,389.642181 402.754998,391.297108 404.901269,391.296931 L415.632622,391.296044 C417.778893,391.295866 419.465385,389.64066 419.465559,387.534211 C419.465715,385.653454 418.086094,384.148962 416.323111,383.848186 Z" id="Shape" transform="translate(410.267257, 384.902149) rotate(-353.000000) translate(-410.267257, -384.902149) "></path>
                <path d="M178.154142,107.474154 C177.617034,104.387894 174.935042,102.129039 171.71738,102.128172 C168.423108,102.127284 165.665761,104.535217 165.283558,107.6965 C163.828111,108.298276 162.909145,109.652909 162.90955,111.158331 C162.910118,113.265922 164.596005,114.92234 166.741113,114.922918 L177.46665,114.925808 C179.611758,114.926385 181.296753,113.270875 181.296186,111.163284 C181.295679,109.281507 179.916276,107.775713 178.154142,107.474154 Z" id="Shape" transform="translate(172.102868, 108.526990) rotate(-244.000000) translate(-172.102868, -108.526990) "></path>
                <path d="M79.4521132,420.557943 C78.9395477,417.66445 76.3752768,415.547515 73.2978549,415.547875 C70.147161,415.548244 67.5091068,417.806935 67.1424006,420.771106 C65.7501675,421.335865 64.8707557,422.606308 64.8705907,424.017798 C64.8703597,425.993883 66.4821612,427.546333 68.5337758,427.546093 L78.791849,427.544893 C80.8434636,427.544653 82.455628,425.991826 82.455859,424.015741 C82.4560652,422.251379 81.137335,420.840044 79.4521132,420.557943 Z" id="Shape" transform="translate(73.663225, 421.546984) rotate(-280.000000) translate(-73.663225, -421.546984) "></path>
                <path d="M50.4925587,354.474007 C49.9568872,351.389335 47.2749821,349.132874 44.0559663,349.133741 C40.7603073,349.134629 38.0005022,351.543034 37.6164346,354.703193 C36.160051,355.3055 35.2399673,356.660058 35.2395619,358.164846 C35.2389943,360.27155 36.9246995,361.926364 39.0707101,361.925786 L49.8007628,361.922896 C51.9467734,361.922318 53.6333705,360.266597 53.633938,358.159893 C53.6344448,356.278907 52.255272,354.77449 50.4925587,354.474007 Z" id="Shape" transform="translate(44.436750, 355.529763) rotate(-334.000000) translate(-44.436750, -355.529763) "></path>
            </g>
        </g>
    </g>
</svg>
